<?xml version="1.0" encoding="utf-8"?>
<!-- Generator: Adobe Illustrator 22.0.1, SVG Export Plug-In . SVG Version: 6.00 Build 0)  -->
<svg version="1.1" id="圖層_1" xmlns="http://www.w3.org/2000/svg" xmlns:xlink="http://www.w3.org/1999/xlink" x="0px" y="0px"
	 viewBox="0 0 559.3 101.3" style="enable-background:new 0 0 559.3 101.3;" xml:space="preserve">
<style type="text/css">
	.st0{fill:#040000;}
	.st1{fill-rule:evenodd;clip-rule:evenodd;fill:#030000;}
</style>
<g>
	<g>
		<path class="st0" d="M105.2,53.3c0-0.5-0.3-1-0.8-1.5c-0.7-0.6-0.9-0.9-0.5-1c0.3-0.2,0.5-0.4,0.6-0.6c0-0.2,0.3-0.4,0.9-0.5
			c0.9-0.1,1.8-0.2,2.7-0.1c0.7,0,1.3,0.2,1.7,0.5c0.3,0.3,0.6,0.7,0.7,1.1c0.2,0.9,0.2,1.9-0.2,3c-0.3,1-1,2.2-1.9,3.5
			c-1.1,1.4-2,2.4-2.5,2.8c0.4-0.2,0.8-0.4,1.2-0.5c0.9-0.4,2.1-0.9,3.3-1.4c0.7-0.3,1.1-0.3,1.2-0.1c0.1,0.1-0.1,0.5-0.4,1.1
			c-1,1.8-2.1,3.3-3.5,4.4c-1.5,1.3-4,2.8-7.4,4.5c-0.7,0.3-1.2,0.5-1.6,0.5c-0.3-0.1-0.6-0.2-1-0.4c-0.8-0.5-1.6-1.3-2.4-2.3
			c-0.6-0.7-0.6-1.2-0.1-1.5c0.3-0.2,0.8-0.3,1.3-0.4c1.4-0.5,3.1-1,5-1.8c1.2-1.9,2.1-3.5,2.7-5C104.8,55.8,105.2,54.4,105.2,53.3z
			 M100.7,38.1c-0.3-0.7-0.5-1.7-0.4-3c0-0.9,0.1-1.3,0.2-1.4c0.1-0.1,0.4,0,0.7,0.1c0.6,0.3,1.2,0.3,1.7,0c0.6-0.3,1.3-0.2,2.1,0.1
			c1,0.5,1.8,0.9,2.3,1.2c1.6,1,2.4,1.8,2.4,2.5c0,0.8-0.2,1.5-0.7,2.3c-0.3,0.4-0.6,1-0.8,1.7c0.3,0,0.5,0.1,0.6,0.1
			c0.2,0.1,0.5,0.3,0.7,0.5c0.2,0.3,0.5,0.6,0.7,0.9c0.2,0.3,0.2,0.7,0,1.1c-0.2,0.4-0.5,0.7-0.8,1.1c-0.3,0.5-1,0.9-1.8,1.3
			c-1.6,0.8-3.4,1.9-5.2,3.2c-0.6,0.5-1.3,0.7-1.9,0.7c-0.6,0-1.3-0.4-2.2-1.1c-1.2-0.9-2-1.8-2.4-2.6c-0.3-0.6-0.2-0.9,0.4-1
			c0.6-0.1,1.3-0.3,2-0.5c1-0.4,2-0.8,2.9-1.1c0-0.1,0-0.2,0.1-0.2c0.6-2.2,0.7-3.6,0.4-4.1C101.3,39.3,100.9,38.7,100.7,38.1z
			 M100.1,53.9c0.5,0.9,0.8,1.2,0.9,1c0.2-0.3,0.4-0.5,0.6-0.6c0.5-0.4,0.6-0.2,0.4,0.5c-0.7,2-1,3.3-1,3.8c0.1,0.5-0.1,0.9-0.4,1.2
			c-0.4,0.5-1,0.4-1.6,0c-0.6-0.4-1.1-0.9-1.4-1.4c-0.4-0.6-0.6-1.3-0.5-2.2c0-0.8,0-1.6-0.1-2.5c0-1.3,0.2-1.9,0.6-1.8
			c0.6,0.2,1.2,0.5,1.6,0.7C99.5,53,99.8,53.4,100.1,53.9z M115.1,53.8c-0.3,0.2-0.5,0.4-0.7,0.5c-0.9,0.6-1.6,0.9-2,1.2
			c-0.2,0.1-0.4,0.2-0.6,0.2c-0.2,0.1-0.4,0.1-0.6,0.1c-0.2,0-0.3,0-0.4-0.1c-0.1-0.1-0.1-0.2,0.1-0.3c0.1-0.1,0.3-0.3,0.4-0.4
			c1.1-1.7,1.8-3,2.3-4c0.7-1.5,1.1-2.6,1.1-3.2c-0.5-0.1-0.8-0.2-0.9-0.5c-0.2-0.5-0.8-1.1-1.5-2.1c-0.7-0.8-0.8-1.4-0.4-2
			c0.6-0.8,1.1-1.3,1.5-1.5c0.9-0.7,1.5-1.4,2-2.2c1-1.8,2-3.5,2.9-5.2c0.9-1.6,1.2-2.6,0.9-3c-0.2-0.4-0.4-0.8-0.4-1.1
			c0-0.2,0.2-0.3,0.4-0.3c0.6,0,1.1-0.1,1.3-0.2c0.2-0.1,0.7-0.1,1.4,0c0.5,0.1,1.1,0.3,1.7,0.4c0.5,0.1,1.1,0.4,1.7,0.9
			c0.3,0.3,0.6,0.8,0.9,1.6c0.1,0.4-0.1,0.8-0.4,1.2c-0.8,0.6-1.6,1.4-2.4,2.5c-1,1.2-2.1,2.6-3.2,4.2c-0.2,0.2-0.2,0.4-0.1,0.4
			c0.1,0.1,0.2,0.1,0.4,0.1c2.2-0.8,4.3-1.4,6.3-1.9c-0.2-0.8-0.3-1.7-0.4-2.6c-0.1-0.6-0.1-0.9,0-0.9c0.2-0.1,0.8,0.1,1.7,0.6
			c0.7,0.3,1.4,0.7,2.1,1.2c1,0.9,1.6,1.7,1.7,2.4c0,0.6-0.2,1.2-0.5,1.7c-0.3,0.5-0.7,0.9-1.3,1.4c-0.3,0.3-0.8,0.5-1.2,0.5
			c-0.5,0-0.9-0.5-1.3-1.6c-0.1-0.1-0.1-0.3-0.2-0.4c-0.5,0.3-1,0.7-1.6,1.2c-1.3,1.1-2.7,2-4.2,2.7c-1.1,0.6-2,1-2.8,1.3
			c-0.2,0.1-0.4,0.2-0.5,0.3c0.2,0,0.3,0,0.3,0c0.3,0.2,0.7,0.4,1.2,0.7c0.4,0.3,0.5,0.6,0.5,0.9c-0.1,0.4-0.2,0.7-0.5,0.9
			c-0.6,0.5-1.1,1-1.6,1.6c-0.2,0.3-0.5,0.6-0.7,0.9c0.2,0,0.3,0,0.5,0c0.8,0.1,1.5,0.3,1.9,0.4c0.5,0.1,0.9,0.4,1.5,0.8
			c0.4,0.4,0.6,0.7,0.6,1c0,0.2-0.1,0.4-0.1,0.6c0.8-0.3,1.5-0.5,2.1-0.6c1.3-0.4,2.2-0.6,2.6-0.8c0.2-0.1,0.3-0.1,0.4-0.1
			c0.1,0,0.3,0.1,0.5,0.2c0.6,0.4,1.3,0.7,1.9,0.9c0.6,0.2,0.9,0.6,1,1c0.2,0.4,0.1,0.9-0.4,1.5c-0.2,0.3-0.5,1-0.9,2.3
			c0,1.5-0.2,2.8-0.6,3.9c-0.3,0.9-0.6,1.7-0.9,2.5c1.3,0.8,2.6,1.5,4,2.2c2.4,1.2,4.1,1.9,5.2,2.1c1.4,0.3,2.4,0.6,3.2,0.9
			c0.8,0.4,1.4,0.8,1.8,1.2c0.1,0.2,0,0.6-0.5,1c-0.7,0.7-1.6,1.2-2.7,1.5c-1,0.4-1.9,0.8-2.6,1.1c-0.7,0.3-1.3,0.5-1.9,0.4
			c-0.7,0-1.5-0.3-2.4-0.8c-1.3-0.6-2.8-1.5-4.6-2.9c-1.4-1.1-2.5-2.1-3.4-3.1c-1,0.6-1.8,0.9-2.4,1.2c-1.2,0.5-2.3,0.9-3.2,1.1
			c-1.5,0.4-2.9,0.6-4,0.6c-1.2,0.4-2,0.5-2.5,0.3c-0.2-0.2-0.3-0.3-0.3-0.4c0.1-0.3,0.9-0.6,2.1-0.9c1.8-0.9,3.5-1.9,4.9-2.9
			c1-0.8,1.8-1.6,2.5-2.3c-0.2-0.3-0.4-0.5-0.7-0.7c-1.2-1.2-2.2-2.2-2.9-2.9c-0.5,0.7-0.9,1.3-1.4,2.1c-1.3,1.8-2.5,3.3-3.8,4.5
			c-1.7,1.6-3.1,2.7-4.1,3.3c-0.2,0.1-0.4,0.2-0.6,0.3c-0.2,0.1-0.5,0.2-0.7,0.2c-0.2,0-0.4,0-0.4-0.1c-0.1-0.1-0.1-0.3,0-0.4
			c0.1-0.2,0.3-0.3,0.4-0.4c2.5-3.9,4.4-7.1,5.6-9.6C114.2,57.9,115.1,55.3,115.1,53.8z M123,62.1c0.2-0.6,0.4-1.2,0.6-1.8
			c0.4-1.5,0.6-2.7,0.6-3.7c0.1-0.5,0.1-0.8,0-0.8c-0.2,0-0.5,0.1-0.8,0.3c-1.9,1.1-3.2,1.8-3.9,2.1c-0.3,0.1-0.4,0.1-0.5,0.2
			c-0.1,0.2-0.2,0.4-0.3,0.6c-0.1,0.1-0.1,0.1-0.2,0.2c0.1,0,0.2,0,0.2,0C119.4,59.5,120.8,60.4,123,62.1z M124.2,45.1
			c-0.2-0.3-0.3-0.5-0.3-0.6c0.1-0.2,0.4-0.3,0.9-0.3c0.6,0.1,1.2,0,1.6,0c0.6-0.1,1.1-0.1,1.6,0c0.4,0,0.7,0.2,0.9,0.4
			c0.2,0.2,0.4,0.4,0.4,0.7c0.1,0.4,0.1,1.1,0.1,2.1c0,0.4,0.5,0.7,1.6,1c0.5,0.1,0.7,0.4,0.5,0.8c-0.1,0.5-0.4,1-0.9,1.5
			c-0.2,0.3-0.7,0.4-1.4,0.4c-0.8-0.1-1.6-0.2-2.2-0.1c-1,0.1-2,0.4-3.1,0.7c-0.2,0-0.3,0-0.4-0.1c-0.1-0.1,0-0.3,0.3-0.4
			c0.8-0.6,1.3-0.9,1.4-1.1c0.1-0.2,0.2-0.4,0.1-0.6c-0.1-0.3-0.3-0.7-0.4-1.3c-0.1-0.7-0.2-1.2-0.2-1.8
			C124.8,45.9,124.6,45.5,124.2,45.1z"/>
		<path class="st0" d="M164.1,60.8c-2.2,0.7-3.7,1.1-4.5,1.5c-0.7,0.4-1.1,0.6-1.4,0.6c-0.3,0-0.6-0.1-0.8-0.2
			c-0.2-0.1-0.6-0.4-1.2-0.9c-0.6-0.5-1.1-1-1.4-1.5c-0.3-0.4-0.6-0.8-0.9-1.1c-0.2-0.3-0.4-0.6-0.6-1c-0.2-0.4-0.2-0.7-0.1-0.9
			c0.2-0.3,0.3-0.4,0.5-0.4c0.3,0,0.6,0,1.1,0c0.5,0,0.9,0,1.5-0.1c3.2-1.4,6.7-2.5,10.6-3.4c0-0.2,0-0.4,0-0.6
			c-0.2-1.1-0.4-1.9-0.6-2.5c-0.4-0.1-0.9-0.3-1.3-0.5c-0.9-0.5-1.4-0.9-1.7-1.4c-0.3-0.5-0.6-0.8-1.1-1.1c-0.2-0.1-0.5-0.4-0.7-0.9
			c-0.4-0.5,0-0.7,0.9-0.7c0.8,0.1,1.8-0.1,3.1-0.5c1.7-0.5,3.7-1.2,6.1-2.3c0.5-0.2,0.9-0.3,1.2-0.3c0.8,0.1,1.4,0.2,1.7,0.4
			c0.6,0.3,1.2,0.7,1.8,1.1c0.6,0.5,0.9,0.8,0.9,1c0.1,0.3-0.1,0.9-0.7,1.7c-0.4,0.5-0.6,0.8-0.6,1.1c0,0.2-0.6,0.5-1.6,0.8
			c-0.9,0.2-1.7,0.5-2.6,0.7c1,0.6,1.7,1.1,2,1.6c0.1,0.2,0.1,0.6,0.1,1.1c1.2-0.2,2.2-0.4,3-0.4c0.9-0.1,1.6-0.2,2-0.5
			c0.3-0.4,0.5-0.7,0.7-0.7c0.3,0,0.8,0.1,1.6,0.5c0.8,0.3,1.6,0.6,2.6,0.8c0.6,0.1,1,0.4,1.3,0.8c0.2,0.3,0.4,0.7,0.6,1.2
			c0.2,0.5,0.2,0.9,0.1,1.3c-0.1,0.4-0.4,0.8-0.7,1.1c-0.3,0.4-0.6,0.7-0.9,1.1c-0.2,0.2-0.5,0.3-0.7,0.3c-0.3,0-0.5-0.1-0.8-0.1
			c-2.8,0-5.5,0.2-8.1,0.7c-0.5,0.1-0.9,0.2-1.3,0.3c0,0.8,0,1.5,0.1,2.4c0,1.7,0,3.8,0,6.3c-0.1,2-0.3,3.5-0.6,4.5
			c-0.3,0.9-0.8,1.7-1.4,2.2c-1.1,1-2.1,1.5-2.9,1.5c-0.9-0.1-2.3-0.8-4.3-2c-0.7-0.4-1.7-0.9-3-1.4c-0.4-0.2-0.6-0.4-0.6-0.6
			c0-0.3,0.2-0.4,0.7-0.3c2.2,0.3,3.8,0,4.9-0.7c0.5-0.7,0.8-1.5,0.9-2.4c0.1-1,0.1-3.6,0-8C166.1,60.2,165.1,60.5,164.1,60.8z
			 M155.2,34.9c-0.1-0.3,0-0.5,0.2-0.6c0.2-0.1,0.7,0,1.6,0.3c1,0.3,1.8,0.9,2.5,1.8c0.4,0.5,0.7,1.2,0.8,2.1c0,1.1,0,2.2,0,3.2
			c-0.1,0.9-0.2,1.6-0.2,2c-0.1,0.6-0.3,1.3-0.7,2.1c-0.2,0.5-0.5,0.9-0.7,1.3c-0.3,0.4-0.7,0.7-1.2,0.9c-0.7,0.3-1.1,0.5-1.2,0.5
			c-0.4,0-0.6-0.2-0.7-0.5c-0.2-0.6-0.6-1.2-1.2-1.8c-0.4-0.5-0.6-1.1-0.6-1.9c0-1,0.5-3.6,1.5-7.6
			C155.2,35.9,155.3,35.3,155.2,34.9z M175.2,34.3c0.1,0.3,0.1,0.5,0.1,0.8c1.4-0.2,2.9-0.3,4.3-0.3c0.7,0,1.3-0.2,1.6-0.4
			c0.2-0.2,0.6-0.3,1.1-0.3c0.6,0,1.3,0.2,1.9,0.6c0.6,0.4,1.1,0.8,1.5,1.2c0.5,0.4,0.8,0.7,1,0.9c0.6,0.3,1.1,0.7,1.4,1.1
			c0.3,0.4,0.5,0.8,0.8,1.3c0.2,0.5,0.3,0.9,0.2,1.2c-0.1,0.3-0.4,0.6-0.7,0.8c-0.5,0.3-0.9,0.4-1.5,0.4c-0.6,0-1.2,0.1-1.7,0.2
			c-0.6,0.2-1.3,0.5-2.1,0.7c-0.8,0.3-1.6,0.5-2.5,0.5c-0.9,0.1-1.8,0.2-2.8,0.3c-0.5,0.1-0.8,0.1-0.9,0c-0.1-0.1,0-0.4,0.6-0.7
			c0.9-1,1.8-2.4,2.6-4c0.3-0.5,0.5-0.8,0.4-0.9c-0.1-0.2-0.3-0.2-0.7-0.2c-2.5,0.2-4.6,0.5-6.3,0.8c-0.3,0.5-0.5,1.1-0.8,1.7
			c-0.3,0.6-0.8,1.2-1.7,1.8c-0.6,0.5-1.3,0.8-1.9,0.8c-0.7,0-1.2-0.1-1.5-0.4c-0.4-0.4-0.9-0.7-1.5-0.9c-0.3-0.2-0.5-0.5-0.4-0.9
			c-0.6,0.3-0.9,0.5-1,0.5c-0.1,0-0.3-0.1-0.6-0.1c-0.8-0.2-1.4-0.5-1.8-0.9c-0.5-0.4-0.8-0.7-1-1c-0.2-0.3-0.3-0.5-0.2-0.6
			c0.1-0.2,0.5-0.4,1.2-0.6c1.4-0.4,2.8-0.8,4.3-1.1c0.2-1.5,0.2-2.4,0-2.7c-0.9-1.2-1.3-1.9-1.3-2.1c0.3-2.1,0.7-2.8,1.4-2.4
			c0.6,0.6,1.5,1,2.8,1.4c2.1,0.6,3.6,1.1,4.3,1.6C174.5,32.7,175,33.3,175.2,34.3z"/>
	</g>
	<g>
		<path class="st0" d="M202.4,36c0.5-0.4,0.9-0.5,1.2-0.5c0.3,0,0.7,0.1,1.2,0c0.6,0,1.2,0.1,1.7,0.3c0.4,0.2,0.6,0.4,0.7,0.7
			c0.1,0.3-0.1,0.7-0.6,1.2c-0.2,0.2-0.6,0.4-1.1,0.7c-0.8,0.4-1.5,0.6-2.1,0.8c-0.6,0.1-1,0.2-1.3,0.2c-0.3,0-0.6,0-0.9-0.2
			c-0.2-0.1-0.4-0.2-0.8-0.4c-0.3-0.2-0.6-0.3-0.6-0.5c-0.1-0.2-0.2-0.3-0.3-0.3c-0.4-0.2-0.2-0.4,0.7-0.7
			C201,36.9,201.8,36.5,202.4,36z M202.9,47.8c-0.9,0.1-1.8,0-2.7-0.3c-0.3-0.3-0.5-0.5-0.5-0.7c-0.1-0.2,0.1-0.4,0.5-0.6
			c0.9-0.5,2-1,3.2-1.5c0.7-0.3,1.3-0.6,1.6-0.9c0.2-0.2,0.6-0.1,1.1,0.1c0.4,0.2,0.9,0.3,1.6,0.4c0.7,0.1,1.2,0.3,1.5,0.5
			c0.2,0.2,0.2,0.4,0.1,0.7c-0.1,0.3-0.2,0.6-0.3,0.9c-0.1,0.3-0.3,0.5-0.9,0.8c-0.4,0.3-0.9,0.8-1.4,1.6c-0.3,0.6-0.6,1.1-0.6,1.4
			c-0.1,0.2,0,0.5,0,0.8c0.1,0.2,0.4,0.6,0.9,1c0.3,0.3,0.5,0.6,0.6,1.1c0.1,0.3,0,0.7-0.2,1c0.4,0,0.9,0.1,1.6,0.2
			c1.7,0.1,3.5,0.4,5.3,0.9c1.6,0.4,3.8,0.9,6.5,1.5c2.2,0.4,4.6,0.6,7.2,0.6c2.1-0.1,3.6,0,4.3,0.1c1.8,0.2,2.7,0.4,2.8,0.5
			c0.1,0.2-0.1,0.4-0.4,0.6c-0.4,0.2-1,0.6-2,1.1c-1.4,0.8-2.6,1.3-3.7,1.5c-0.8,0.2-1.5,0.4-2.1,0.8c-0.4,0.2-1.1,0.2-1.9,0.1
			c-2.5-0.6-5.3-1.3-8.2-2.1c-2.8-0.7-4.3-1.2-4.6-1.3c-0.3-0.1-0.9-0.2-1.6-0.4c-1.1-0.2-1.9-0.3-2.5-0.3l-1.6-0.1
			c-0.4,0-0.9,0-1.3,0.1c-0.5,0.1-1,0.3-1.3,0.5c-0.5,0.2-0.9,0.3-1.2,0.2c-0.6-0.2-1-0.4-1.2-0.6c-0.2-0.2-0.4-0.5-0.5-0.8
			c-0.1-0.3-0.3-0.5-0.6-0.6c-0.3-0.1-0.3-0.3,0-0.7c0.4-0.4,0.7-0.6,1-0.7c0.9-0.5,2.1-0.8,3.4-0.9c0.2-0.3,0.2-0.6-0.1-0.7
			c-0.7-0.4-1.1-0.9-1.4-1.4c-0.2-0.3-0.4-0.7-0.4-1.1c-0.1-1.3,0-2.2,0.2-2.7C203.3,48,203.2,47.9,202.9,47.8z M221.6,38.2
			c0,0.1,0,0.2-0.1,0.3c-0.1,0.1-0.1,0.2-0.1,0.3c-0.1,0.3-0.3,0.7-0.6,1.1c-0.1,0.2-0.3,0.3-0.4,0.6c0.8-0.2,1.7-0.4,2.8-0.6
			c0.5,0,0.8-0.2,1-0.3c0.2-0.1,0.7-0.1,1.5,0.1c0.9,0.3,1.6,0.6,1.9,0.9c0.4,0.3,0.6,0.6,0.6,0.7c0,0.2,0,0.4-0.1,0.6
			c0.1,1.9,0.1,3.9,0.3,5.9c0.1,2.2,0.1,3.7,0,4.5c-0.2,0.8-0.5,1.5-1,2c-0.7,0.7-1.4,1.2-2.1,1.5c-0.8,0.3-1.2,0.4-1.3,0.3
			c-0.1-0.1-0.3-0.7-0.8-1.8c-0.1-0.1-0.1-0.3-0.1-0.4c-2.9,0.4-4.6,0.7-5.2,0.8c-0.3,0.1-0.6,0.1-1.1,0.1c-0.2,0-0.3,0-0.4,0
			c-0.1,0-0.2,0-0.2,0c-0.2,0-0.4,0.1-0.7,0.1c-0.2,0-0.4-0.2-0.5-0.5c-0.4-0.9-0.7-2.5-1-5c-0.2-1.6-0.3-3.2-0.4-4.8
			c-0.1-1,0-1.8,0-2.4c-0.1-0.8,0-1.2,0.1-1.3c0.2,0,0.4,0,0.8,0.1c0.5,0.2,1,0.4,1.5,0.6c0.1,0,0.1,0,0.2,0.1
			c0.3-0.4,0.6-0.9,0.9-1.4c0.2-0.5,0.3-1,0.4-1.4c-1.2,0.3-2.4,0.6-3.6,1c-0.4,0.1-0.7,0.1-1,0c-0.3-0.1-0.6-0.3-1-0.7
			c-0.5-0.5-0.9-0.9-1-1.2c-0.2-0.3-0.3-0.6-0.3-0.8c0-0.2,0-0.4,0-0.5c0.1-0.1,0.2-0.1,0.5-0.1c0.4,0,0.8,0,1.2,0
			c1.2-0.2,2.8-0.5,4.7-0.9c1.2-0.3,2.3-0.5,3.2-0.7c0.8-1,1.4-1.9,1.8-2.5c0.8-1.3,1.1-2.2,1.1-2.6c0-0.5,0.1-0.9,0.2-1
			c0.1-0.2,0.4-0.2,0.8-0.2c0.5,0.1,1,0.2,1.4,0.3c0.6,0.1,1.1,0.3,1.5,0.4c0.4,0.1,0.7,0.4,1.1,0.7c0.3,0.3,0.5,0.5,0.4,0.8
			c-0.1,0.4-0.3,0.6-0.6,0.8c-0.5,0.3-1,0.7-1.5,1.1c-0.5,0.5-1,1-1.6,1.4c-0.2,0.1-0.3,0.2-0.4,0.3c0.7-0.1,1.3-0.2,1.9-0.3
			c1-0.1,1.7-0.2,1.9-0.4c0.2-0.1,0.5-0.1,0.8,0.1c0.2,0.1,0.4,0.2,0.8,0.2c0.3,0.1,0.6,0.2,0.7,0.2c0.1,0.1,0.3,0.3,0.4,0.5
			c0.1,0.2,0.1,0.3,0.1,0.6c0,0.2-0.1,0.4-0.1,0.6c-0.1,0.2-0.2,0.3-0.3,0.5c-0.1,0.1-0.3,0.2-0.6,0.2c-0.3,0-0.6,0-1,0
			c-2.4,0.2-4.9,0.6-7.6,1.3C221.5,38.1,221.5,38.2,221.6,38.2z M212,30.5c0.2-0.1,0.7,0,1.6,0.3c0.6,0.1,1.1,0.2,1.7,0.5
			c0.9,0.4,1.4,0.8,1.6,1.2c0,0.5-0.1,0.9-0.3,1.3c-0.2,0.4-0.5,0.8-0.9,1.1c-0.3,0.3-0.6,0.5-0.9,0.5c-0.4,0-0.8-0.3-1.3-1
			c-0.6-0.9-1-2-1.3-3.1C211.9,30.8,211.8,30.5,212,30.5z M220,44.3c0.1,0,0.3,0,0.4-0.1c0.1,0,0.3,0,0.4,0c0.2,0,0.5,0.1,0.7,0
			c0.3,0,0.5,0,0.6,0.2c0.1,0.1,0.1,0.2,0.1,0.3c0,0.1,0,0.1,0,0.2c0,0.1,0,0.1,0,0.2c0,0.1-0.1,0.2-0.2,0.3
			c-0.1,0.1-0.1,0.2-0.2,0.2c-0.1,0.1-0.3,0.2-0.6,0.3c-1,0.4-1.9,0.7-2.6,0.8c-0.7,0.1-1.2,0.2-1.5,0.3c0,0.5,0,1,0,1.6
			c0.8-0.3,1.8-0.5,2.8-0.7c0.1,0,0.3,0,0.4-0.1c0.1,0,0.3,0,0.4,0c0.2,0.1,0.5,0.1,0.8,0.1c0.3,0,0.5,0,0.6,0.2
			c0.1,0.1,0.1,0.2,0.1,0.3c0,0.1,0,0.2,0,0.2c0,0.1,0,0.1,0,0.2c-0.1,0.1-0.1,0.2-0.2,0.3c-0.1,0.1-0.1,0.2-0.2,0.2
			c-0.1,0.1-0.3,0.2-0.6,0.3c-1,0.3-1.9,0.6-2.6,0.8c-0.6,0.1-1.1,0.2-1.3,0.2c0.1,0.6,0.1,1.2,0.1,1.8c0.5-0.1,1.2-0.2,2-0.3
			c1.4-0.3,2.6-0.6,3.6-0.9c0,0,0.1,0,0.1,0c0-0.4,0.1-0.9,0.1-1.4c0.1-2.2,0.1-4.6,0-7.3c0-0.3-0.1-0.4-0.3-0.5
			c-0.2-0.1-0.4-0.1-0.8,0c-1.7,0.3-3.2,0.8-4.6,1.4c0,0.4-0.1,0.9-0.1,1.6C218,44.8,218.9,44.6,220,44.3z"/>
		<path class="st0" d="M257.9,39.7L257.9,39.7c-0.2,0-0.4,0-0.6-0.1c-0.7-0.1-1.3-0.3-1.7-0.6c-0.4-0.3-0.8-0.5-1.1-0.7
			c-0.2-0.2-0.3-0.4-0.2-0.5c0.1-0.2,0.5-0.4,1.1-0.5c1.2-0.5,2.3-0.8,3.5-1.1c0.1-0.8,0.2-1.5,0.3-2.3c0.1-1.3,0-2.6-0.2-3.8
			c-0.1-0.7,0-1,0.3-0.9c0.2,0.1,0.5,0.1,0.7,0c0.2-0.1,0.8,0,1.8,0.5c1.7,0.7,2.8,1.2,3.3,1.5c0.5,0.3,0.8,0.6,0.9,1
			c0.1,0.4,0.1,0.7,0,1.1c-0.3,0.6-0.5,1.2-0.7,1.7c0.4-0.1,0.8-0.1,1.2-0.2c0.7,0,1.1-0.2,1.4-0.4c0.2-0.1,0.5-0.2,1-0.2
			c0.5-0.1,1.1,0,1.8,0.3c0.5,0.2,1,0.5,1.4,0.8c0.4,0.3,0.7,0.5,0.9,0.7c0.5,0.2,0.9,0.5,1.2,0.7c0.3,0.2,0.5,0.5,0.7,0.9
			c0.2,0.3,0.3,0.6,0.2,0.8c-0.1,0.2-0.2,0.4-0.5,0.6c-0.3,0.2-0.7,0.3-1.2,0.3c-0.4,0-0.9,0.1-1.3,0.2c-0.5,0.2-1,0.5-1.8,0.8
			c-0.7,0.3-1.4,0.5-2.2,0.6c-0.8,0.2-1.6,0.4-2.5,0.6c-0.3,0.1-0.6,0.1-0.7,0c-0.1-0.1,0-0.3,0.4-0.5c0.8-0.9,1.6-1.9,2.2-3.3
			c0.3-0.4,0.4-0.6,0.3-0.7c-0.1-0.1-0.3-0.2-0.6-0.1c-1.1,0.2-2.1,0.4-2.9,0.6c0,0,0,0,0,0.1c-0.1,0.2-0.2,0.5-0.3,0.9
			c0,0.2,0,0.3-0.1,0.6c-0.7,1.9-1.7,4-2.7,6.4c1.2-0.2,2.3-0.3,3.4-0.4c0-0.2-0.1-0.4-0.1-0.6c-0.1-0.3,0-0.5,0.3-0.6
			c0.3-0.2,0.6-0.2,1,0c0.6,0.2,1,0.4,1.4,0.5c0.2,0,0.4,0.2,0.7,0.3c0.8-0.1,1.6-0.2,2.2-0.2c2-0.2,3.7-0.4,5.1-0.8
			c0.8-0.3,1.3-0.3,1.6-0.1c0.8,0.5,1.6,0.9,2.4,1.1c0.9,0.3,1.5,0.7,1.9,1.3c0.1,0.2,0.1,0.6,0,1.1c-0.2,0.4-0.4,0.8-0.6,1.2
			c-0.2,0.3-0.4,0.5-0.6,0.7c-0.2,0.1-0.5,0.2-0.9,0.1c-0.3-0.1-0.6-0.2-1.1-0.4c-1.1-0.3-2.7-0.4-4.7-0.4c-1.9,0-3.5,0-5,0.1
			c-0.2,1-0.5,2.1-0.9,3.1c-0.4,0.8-0.8,1.5-1.2,2.2c0.7,0.2,1.3,0.4,1.8,0.6c2.2,0.8,4.3,1.9,6.3,3.3c0.3,0.2,0.4,0.4,0.5,0.6
			c0.1,0.2,0.2,0.5,0.3,0.7c0.1,0.2,0.1,0.5,0,0.9c-0.1,0.3-0.3,0.7-0.4,1c-0.2,0.3-0.3,0.5-0.3,0.7c-0.1,0.2-0.2,0.4-0.5,0.5
			c-0.2,0.1-0.5,0.1-0.9-0.2c-1.3-0.6-2.2-1-2.8-1.5c-1.7-1.2-3.9-2.3-6.8-3.3h0c-1.1,0.9-2.3,1.6-3.6,2.3c-1.1,0.5-2.2,0.9-3.2,1.1
			c-0.7,0.1-1.4,0.3-2.2,0.4c-0.5,0.1-1,0.1-1.6,0c-0.3-0.1-0.8-0.2-1.3-0.3c-0.4-0.1-0.6-0.2-0.6-0.4c0-0.3,0.2-0.4,0.4-0.4
			c0.3,0,0.6-0.1,0.8-0.1c0.5,0,0.9-0.1,1.3-0.2c0.2-0.1,0.6-0.3,1-0.4c2.1-1.2,3.8-2.3,5-3.3c-0.6-0.2-1.1-0.3-1.5-0.3
			c-0.8,0.1-1.5,0-2.2-0.2c-0.6-0.2-1-0.5-1.2-0.8c-0.3-0.5-0.6-0.8-0.9-0.9c-0.1-0.1,0-0.4,0.2-0.9c0.1-0.6,0.4-1.3,0.6-1.9
			c-2.6,0.7-4.6,1.4-5.8,2.1c-0.8,0.3-1.4,0.5-1.9,0.5c-0.7,0-1.4-0.2-1.8-0.5c-0.7-0.4-1.2-0.9-1.6-1.5c-0.5-0.7-0.8-1.1-0.9-1.3
			c-0.2-0.2-0.2-0.4-0.1-0.5c0.1-0.2,0.7-0.4,1.8-0.5c1-0.1,1.8-0.3,2.5-0.3c2.8-0.8,6-1.4,9.4-2C256.4,44.1,257.1,42.1,257.9,39.7z
			 M249,36.3c-0.1-0.2,0-0.4,0.1-0.5c0.1,0,0.6,0,1.3,0.1c0.9,0.1,1.6,0.5,2.2,1c0.4,0.3,0.7,0.7,0.8,1.3c0.2,0.7,0.3,1.4,0.3,2.1
			c0,0.6,0.1,1,0.1,1.3c0,0.4-0.1,0.8-0.3,1.4c-0.1,0.4-0.3,0.7-0.5,0.9c-0.2,0.3-0.4,0.5-0.8,0.8c-0.5,0.3-0.8,0.4-0.9,0.4
			c-0.3,0-0.6,0-0.7-0.3c-0.2-0.4-0.6-0.8-1.1-1.2c-0.4-0.3-0.6-0.7-0.7-1.2c-0.1-0.7,0-2.3,0.3-5C249.2,37.1,249.1,36.6,249,36.3z
			 M259.3,48.9c-0.2,0.3-0.3,0.7-0.5,1c-0.3,0.6-0.4,1-0.3,1.1c0.1,0.1,0.4,0.3,0.7,0.3c1,0.2,1.9,0.4,2.7,0.7
			c0.4-0.6,0.8-1.2,1.1-1.8c0.3-0.6,0.6-1.3,0.8-2.1c-0.1,0-0.3,0-0.3,0C262.2,48.4,260.7,48.6,259.3,48.9z"/>
		<path class="st0" d="M292.5,50.3c-0.4,0.3-0.7,0.4-1,0.5c-0.3,0-0.6,0.1-0.8,0.2c-0.2,0.1-0.5,0.2-0.9,0.3
			c-0.3,0.1-0.5,0.1-0.6,0.1c-0.3,0-0.4-0.1-0.4-0.2c0-0.1,0-0.3-0.1-0.6c-0.1-0.3,0.4-0.8,1.5-1.6c0.3-0.3,0.8-0.8,1.3-1.5
			c0.7-0.8,1.2-1.6,1.6-2.2c-0.4,0-0.9,0-1.3-0.1c-0.8-0.2-1.5-0.5-2.2-0.8c-0.8-0.4-1.2-0.7-1.3-1c-0.1-0.3-0.3-0.6-0.6-0.8
			c-0.2-0.1-0.3-0.2-0.3-0.4c-0.1-0.2,0-0.3,0-0.3c0.1,0,0.2-0.1,0.3-0.1c0.1,0,0.3,0,0.5-0.1c0.2-0.1,0.4-0.1,0.6-0.1
			c0.4-0.1,1.2-0.4,2.3-0.9c1.3-0.6,2.6-1.3,3.9-1.9c0-0.2,0-0.3,0-0.4c-0.1-1.6-0.2-2.5-0.3-2.8c0-0.1-0.1-0.1-0.1-0.1
			c-1.1,0-2.1-0.1-2.9-0.2c-0.6-0.1-1-0.2-1.3-0.3c-0.3-0.2-0.4-0.3-0.1-0.3c0.3,0,0.7-0.1,1.3-0.3c1.8-0.7,3.4-1.3,4.7-2
			c1.5-0.7,2.4-1.3,2.7-1.7c0.4-0.4,0.7-0.5,1-0.3c0.3,0.2,0.8,0.3,1.5,0.4c0.9,0.1,1.5,0.4,1.9,0.9c0.5,0.5,0.7,0.9,0.6,1.4
			c0,0.1,0,0.3-0.1,0.3c-0.1,0.1-0.3,0.3-0.3,0.5c-0.1,0.3-0.5,0.5-1.2,0.7c-1.2,0.3-2.3,0.5-3.4,0.6c0.1,0.1,0.3,0.3,0.4,0.4
			c0.1,0.2,0.1,0.4,0.1,0.6c1.3-0.1,2.2,0,2.8,0.1c0.5,0.1,0.8,0.3,1,0.8c0.2,0.5,0.3,0.9,0.2,1.2c-0.2,0.5-0.6,0.9-1.2,1.3
			c-1,0.6-2.2,1.4-3.6,2.3c0,0.4,0,0.7,0,1.1c0.5-0.1,1-0.2,1.7-0.1c1,0.1,1.7,0.3,2.1,0.6c0.3,0.3,0.4,0.7,0.4,1
			c0,0.3,0,0.7-0.1,1.1c-0.1,0.3-0.2,0.5-0.4,0.6c-0.2,0.2-0.7,0.1-1.4-0.3c-0.7-0.4-1.5-0.8-2.2-1.4c0,2.2-0.1,3.7-0.1,4.7
			c-0.1,1.5-0.1,3.7,0,6.7c0,0.6-0.1,1.1-0.2,1.3c-0.1,0.2-0.3,0.4-0.6,0.6c-0.3,0.2-0.7,0.5-1.2,0.8c-0.4,0.3-0.9,0.1-1.7-0.8
			c-0.1-0.1-0.2-0.6-0.2-1.6c-0.1-1.8-0.1-4.4,0-7.8C294,49.1,293.2,49.7,292.5,50.3z M311.8,45.9c0.1-4.2,0.2-7.6,0.4-10.2
			c0.1-2.6,0.1-4.2-0.1-4.7c-0.3-0.5-0.4-1.1-0.4-1.7c0-0.4,0.1-0.6,0.3-0.7c0.2-0.1,0.3-0.1,0.5,0c0.3,0.2,0.6,0.2,0.7,0.1
			c0.3-0.2,0.6-0.3,1-0.3c0.3,0,0.9,0.2,1.6,0.6c0.7,0.5,1.2,0.9,1.6,1.2c0.2,0.2,0.4,0.3,0.6,0.6c0.3,0.3,0.5,0.6,0.6,1.1
			c0.1,0.3,0,0.6-0.2,0.9c-0.4,0.6-0.7,1.6-0.9,3.1c-0.3,2.5-0.4,4.8-0.4,6.7c0,0.8,0,1.6,0,2.4c0.1,0,0.2-0.1,0.3-0.1
			c0.3-0.1,0.7-0.3,1.2-0.6c0.2-0.1,0.4-0.2,0.6-0.2c0.4-0.1,0.7-0.1,0.9,0c0.4,0.2,0.8,0.3,1.1,0.4c0.5,0.1,0.9,0.2,1.3,0.4
			c0.4,0.2,0.7,0.3,0.9,0.5c0.3,0.3,0.4,0.6,0.4,1c-0.1,0.3-0.2,0.5-0.3,0.8c-0.1,0.3-0.2,0.5-0.3,0.7c0,0.4-0.1,0.6-0.3,0.7
			c-0.3,0.1-0.7,0.2-1.5,0.2c-1.1,0-2.3,0-3.7,0.1c-0.3,0-0.5,0-0.7,0.1c-0.1,2.1-0.1,3.9-0.1,5.5c0,1.6-0.1,2.8-0.2,3.5
			c-0.1,0.3-0.2,0.5-0.2,0.8c-0.1,0.3-0.2,0.6-0.3,0.9c-0.1,0.4-0.3,0.7-0.6,1c-0.2,0.3-0.7,0.5-1.6,0.6c-0.7,0.1-1.1,0.3-1.4,0.4
			c-0.3,0.1-0.5,0.1-0.6-0.2c-0.1-0.4-0.2-0.9-0.2-1.5c-0.1-2.9-0.2-6.3-0.2-10.2c-0.2,0-0.4,0-0.5,0.1c-2.7,0.5-4.6,1-5.9,1.4
			c-1,0.3-1.8,0.3-2.2,0c-0.7-0.5-1.3-1.1-1.8-1.8c-0.5-0.8-0.7-1.3-0.6-1.4c0.2-0.2,0.5-0.3,0.8-0.2c0.3,0,0.8,0,1.4-0.2
			c1.3-0.4,3.2-0.9,5.9-1.4C309.8,46.2,310.8,46,311.8,45.9z M309.4,42.1c0.3,0.2,0.6,0.4,0.7,0.6c0.1,0.2,0.1,0.5-0.1,0.9
			c-0.3,0.5-0.6,0.8-0.9,0.9c-0.6,0.2-1.1,0.3-1.6,0.4c-0.6,0.1-1.2,0.1-1.7,0.1c-0.5,0-0.9-0.2-1.4-0.5c-0.5-0.3-1-0.7-1.4-1.3
			c-0.4-0.6-0.5-1-0.3-1c0.2-0.1,0.5-0.1,1.1-0.1c0.2,0,0.5,0,1-0.1c0.5-0.1,1-0.2,1.6-0.3c0.3-0.1,0.4-0.2,0.6-0.3
			c0.2-0.2,0.4-0.3,0.6-0.2c0.2,0,0.3,0.1,0.4,0.1c0.2,0.1,0.3,0.1,0.4,0.2C308.7,41.6,309.1,41.9,309.4,42.1z M310.3,36.4
			c0.3,0.2,0.5,0.5,0.5,0.7c0.1,0.3-0.1,0.6-0.3,0.9c-0.5,0.4-0.8,0.6-1.1,0.7c-0.6,0-1.1,0.1-1.5,0.1c-0.6,0-1.1,0-1.6-0.1
			c-0.4-0.1-0.8-0.3-1.1-0.7c-0.5-0.4-0.8-0.9-1-1.5c-0.2-0.6-0.2-1,0-1.1c0.2-0.1,0.6,0,1.1,0.1c0.1,0,0.4,0.1,0.9,0.1
			c0.5,0,1-0.1,1.6-0.1c0.3,0,0.4,0,0.6-0.1c0.2-0.2,0.4-0.2,0.6-0.1c0.1,0,0.2,0.1,0.3,0.2c0.1,0.1,0.3,0.2,0.3,0.2
			C309.7,35.8,310,36.1,310.3,36.4z"/>
		<path class="st0" d="M335,52.5c-0.6,0.4-1.1,0.7-1.4,0.7c-0.3,0.1-0.5,0.1-0.7,0c-0.3,0-0.5-0.2-0.7-0.3c-0.4-0.3-0.7-0.5-0.9-0.8
			c-0.1-0.2-0.1-0.3,0-0.4c0.1-0.1,0-0.4-0.2-0.7c-0.2-0.3-0.1-0.5,0.2-0.5c0.3,0,0.7-0.2,1-0.4c1.6-1,2.5-1.5,2.9-1.8
			c0.6-0.4,1.3-0.9,2.2-1.5c0-1.2,0-2.4,0-3.8c0-0.1,0-0.2,0-0.2c-0.4,0-0.7,0-1.1-0.1c-0.9-0.3-1.7-0.6-2.3-0.9
			c-0.8-0.5-1.3-0.8-1.4-1.1c-0.1-0.3-0.3-0.6-0.6-0.9c-0.2-0.1-0.3-0.3-0.3-0.5c-0.1-0.2,0-0.3,0-0.3c0.1,0,0.2-0.1,0.3-0.1
			c0.1,0,0.3,0,0.5-0.1c0.2-0.1,0.4-0.1,0.7-0.1c0.3,0,0.8-0.2,1.6-0.5c0.8-0.3,1.7-0.7,2.5-1c-0.1-2-0.1-3.2-0.1-3.4
			c-0.2-0.9-0.4-1.8-0.7-2.6c-0.2-0.6-0.2-1,0-1.2c0.3-0.2,0.8-0.2,1.5,0c1.7,0.6,2.8,0.9,3.3,1.1c0.5,0.3,0.8,0.5,1,0.8
			c0.2,0.3,0.3,0.6,0.3,0.9c0,0.2-0.1,0.6-0.4,1.1c-0.2,0.4-0.4,0.8-0.5,1.4c1.1,0,1.9,0.1,2.4,0.2c0.5,0.2,0.8,0.5,1,0.9
			c0.2,0.5,0.3,0.9,0.1,1.3c-0.3,0.5-0.7,1-1.3,1.4c-0.8,0.4-1.7,1.1-2.9,2c0,0.8,0,1.6,0,2.5c0,0.2,0,0.4,0,0.6
			c1-0.7,1.9-1.5,2.8-2.2c0.3-0.3,0.4-0.4,0.6-0.2c0.1,0.1,0,0.6-0.3,1.3c-0.3,0.6-0.5,1.1-0.8,1.4c-0.3,0.4-0.7,0.8-0.9,1.2
			c-0.5,0.4-0.9,0.9-1.4,1.5c0.1,1.4,0.1,2.7,0.2,3.8c0.1,2,0.2,3.9,0.1,5.8c0.1,0.4,0,0.8-0.1,1.1c-0.2,0.5-0.4,1-0.8,1.3
			c-0.3,0.3-0.7,0.6-1.1,0.8c-0.3,0.3-0.6,0.5-0.8,0.5c-0.4,0.1-1.1-0.2-2-0.9c-0.4-0.3-0.8-0.7-1.3-1c-0.3-0.2-0.5-0.4-0.7-0.6
			c-0.1-0.1-0.2-0.3-0.2-0.3c0.1-0.1,0.4-0.1,1.1-0.1c0.6,0,1,0,1.3,0c0.3-0.1,0.5-0.3,0.4-0.7c0-0.6,0.1-2.7,0.1-6.2
			C336.7,51.5,335.8,52,335,52.5z M350.5,30.8c-0.3-0.5-0.4-0.9-0.4-1.3c0-0.4,0.1-0.6,0.3-0.6c0.3,0,0.6,0,0.9-0.1c0.4,0,0.8,0,1,0
			c0.5,0.1,1,0.2,1.4,0.2c0.5,0.1,1.2,0.4,1.9,1c0.3,0.2,0.6,0.5,0.9,0.7c0.3,0.2,0.5,0.4,0.5,0.7c0.1,0.3,0,0.6-0.1,0.8
			c-0.1,0.4-0.2,1.4-0.3,3.1c0.4-0.3,0.7-0.4,1-0.4c0.7,0,1.3,0,1.7,0.1c0.6,0.1,1.2,0.4,1.9,0.7c0.6,0.3,1,0.5,1.1,0.7
			c0.1,0.3,0,0.7-0.4,1.4c-0.2,0.5-0.3,0.8-0.3,1c0,0.2-0.5,0.5-1.4,0.9c-1.4,0.6-2.8,1.1-4.1,1.6c-0.2,0.9-0.4,1.8-0.7,2.8
			c0.1,0,0.1-0.1,0.1-0.1c0.2-0.1,0.3-0.2,0.4-0.2c0.2,0,0.4,0,0.6,0.1c0.5,0.1,1,0.2,1.4,0.3c0.4,0,0.7,0.2,0.9,0.4
			c0.2,0.2,0.2,0.5,0,0.9c-0.1,0.2-0.2,0.7-0.2,1.4c-0.1,1.6-0.4,3-0.9,4.1c-0.4,0.8-0.7,1.6-1.1,2.2c0.7,0.6,1.5,1.1,2.4,1.7
			c0.9,0.6,2,1.1,3,1.6c0.6,0.3,1.3,0.6,1.9,0.7c0.5,0.2,1.4,0.6,2.6,1.1c1,0.4,1.7,0.7,2.3,0.9c0.3,0.1,0.6,0.3,0.9,0.5
			c0.1,0.1,0.2,0.2,0.1,0.3c-0.1,0.2-0.3,0.4-0.8,0.6c-0.6,0.3-1,0.5-1.3,0.6c-0.7,0.2-1.3,0.3-1.9,0.2c-0.5,0-1,0-1.4,0
			c-0.7,0.1-1.5,0.2-2.2,0.3c-0.5,0.1-0.9,0.1-1.4-0.1c-0.5-0.2-0.9-0.4-1.4-0.6c-0.6-0.3-1.3-0.6-1.9-0.9c-0.9-0.4-1.6-0.9-2.2-1.4
			c-0.7-0.5-1.6-1.2-2.6-2.2c-0.2,0.1-0.5,0.2-0.7,0.4c-1.6,0.7-2.7,1.2-3.5,1.4c-0.8,0.2-1.5,0.3-2.1,0.4c-1,0.1-1.8,0.1-2.5,0
			c-0.8,0.1-1.3,0.1-1.5,0c-0.1-0.1-0.2-0.2-0.2-0.3c0.1-0.1,0.6-0.2,1.4-0.3c1.9-0.7,3.6-1.4,5-2.2c0.8-0.5,1.5-0.9,2.1-1.4
			c-0.4-0.4-0.7-0.8-1.1-1.1c-2.2-2.2-3.5-3.5-3.9-3.8c-0.6-0.4-1-0.7-1.2-0.9c-0.3-0.4-0.5-0.8-0.6-1.2c-0.1-0.5,0.1-0.7,0.5-0.7
			c0.3,0,0.7,0,1-0.1c0.3,0,0.4-0.1,0.5,0c0.1,0,0.3,0.1,0.5,0.1c0.2,0,0.4,0,0.7,0.1c0.1-0.1,0.3-0.1,0.6-0.2
			c0.8-0.3,1.6-0.5,2.3-0.7c0-0.3,0.1-0.6,0.2-0.9c0.3-0.7,0.6-1.7,0.7-2.9c-0.1-0.1-0.2-0.1-0.4-0.1c-0.8-0.3-1.4-0.6-1.8-0.9
			c-0.4-0.3-0.8-0.6-1.3-0.7c-0.3-0.1-0.6-0.3-0.9-0.7c-0.4-0.4-0.2-0.6,0.8-0.7c0.8-0.1,1.9-0.4,3.2-0.9c0.2-0.1,0.4-0.2,0.6-0.2
			c0.1-2.1,0-3.8-0.2-5.2C350.9,31.9,350.7,31.1,350.5,30.8z M350.2,48.9c0.6,0.4,1.2,0.8,2,1.4c0.6,0.4,1.1,0.8,1.5,1.1
			c0.2-0.4,0.4-0.8,0.6-1.2c0.5-1.3,0.8-2.3,0.9-3.1c0.1-0.3,0-0.5,0-0.5c-0.2,0-0.3,0-0.5,0.2C352.6,47.6,351.2,48.4,350.2,48.9z"
			/>
		<path class="st0" d="M387.8,39.1c-0.2,0-0.3,0.1-0.5,0.1c-2.2,0.4-3.6,0.8-4.4,1c-0.5,0.2-0.9,0.4-1.1,0.4c-0.2,0-0.4,0-0.6-0.2
			c-0.2-0.1-0.5-0.3-0.9-0.7c-0.4-0.4-0.8-0.7-1-1.1c-0.2-0.3-0.4-0.5-0.6-0.8c-0.1-0.2-0.3-0.4-0.4-0.7c-0.1-0.3-0.1-0.5,0-0.6
			c0.2-0.2,0.3-0.3,0.4-0.3c0.2,0,0.4,0,0.8,0.1c0.4,0,0.8,0,1.2,0c2.8-0.8,5.8-1.4,9-1.9c0.3-0.9,0.5-1.8,0.7-2.7
			c0.1-0.3,0.1-0.6,0-0.8c-0.1-0.2-0.1-0.3,0-0.3c0.3-0.1,0.5-0.2,0.6-0.5c0.1-0.3,0.5-0.4,1-0.3c1.6,0.2,3.2,0.8,4.8,1.7
			c0.4,0.2,0.6,0.5,0.6,0.9c0,0.3-0.2,0.7-0.5,1.2c1.7-0.2,3.1-0.3,4.1-0.2c0.9,0,1.5-0.1,2-0.3c0.2-0.3,0.4-0.5,0.6-0.5
			c0.2,0,0.6,0.2,1.2,0.5c0.5,0.3,1.2,0.5,2,0.7c0.5,0.1,0.8,0.3,1,0.6c0.1,0.2,0.2,0.5,0.4,0.9c0.1,0.3,0.1,0.6,0,0.9
			c-0.1,0.3-0.3,0.5-0.6,0.7c-0.3,0.2-0.6,0.5-0.9,0.7c-0.2,0.1-0.4,0.2-0.6,0.2c-0.2,0-0.4-0.1-0.6-0.1c-2.6-0.2-5.2-0.2-7.8,0.1
			c-1.4,0.1-2.7,0.3-4,0.5c-0.2,0.2-0.3,0.5-0.4,0.7c-0.5,0.8-1,1.6-1.7,2.5c0.2,0.1,0.3,0.2,0.4,0.3c0.2,0.4,0.2,0.7,0,1.2
			c-0.1,0.3-0.3,0.8-0.3,1.3c0,0,0.1,0,0.1,0c0.3,0,0.6,0,0.8-0.1c0.2-0.1,0.4-0.1,0.6-0.1c0.3,0,0.5-0.1,0.7,0
			c0.8,0.1,1.4,0.3,1.9,0.4c0.4,0.2,0.7,0.4,0.9,0.6c0.1,0.2,0.3,0.4,0.4,0.6c0.1,0.3,0.1,0.5,0.1,0.8c0,0.3-0.2,0.5-0.6,0.6
			c-0.3,0.1-0.5,0.2-0.8,0.3c-0.1,0.1-0.3,0.1-0.4,0.1c-0.3,0-0.5,0-0.7,0c-0.2,0-0.3,0-0.5-0.1c-0.2,0.1-0.6,0.3-1.1,0.4
			c-0.2,0.1-0.4,0.1-0.4,0c-0.1-0.1,0-0.2,0.2-0.3c0.3-0.3,0.5-0.5,0.7-0.6c0.1-0.1,0-0.2-0.2-0.3c-0.7-0.4-1.2-0.8-1.7-1.2
			c-0.1,1.8-0.2,3.4-0.2,4.8c0.2,0,0.4-0.1,0.6-0.1c0.7-0.2,1.5-0.4,2.5-0.8c0.3-0.1,0.5-0.1,0.7-0.1c0.5,0.1,0.8,0.2,1.1,0.2
			c0.3,0.1,0.6,0.3,0.9,0.6c0-2.8,0-5.2,0-7.3c0-0.3-0.1-0.4-0.2-0.3c-0.7,0-1.1,0-1.4-0.1c-0.6-0.1-1.1-0.4-1.6-0.7
			c-0.4-0.3-0.6-0.6-0.6-1.1c0-0.1,0.1-0.2,0.5-0.3c1.9-0.4,3.2-0.8,3.8-1.2c0.3-0.2,0.9-0.3,1.6-0.1c0.9,0.2,1.6,0.5,2.2,0.8
			c0.7,0.4,1.1,0.8,1.3,1.1c0.1,0.3,0.1,0.7-0.1,1.2c-0.4,0.7-0.6,1.4-0.7,2c0,0.3,0,1.2,0,2.7c0,1.4,0.2,3.7,0.5,6.7
			c0.1,2.3,0.2,3.8,0.2,4.4c-0.1,0.5-0.2,1-0.5,1.5c-0.1,0.1-0.2,0.2-0.3,0.3c-1,0.6-1.9,1.3-2.8,2.1c-0.2,0.3-0.6,0.3-1,0.2
			c-0.6-0.3-1.2-0.7-1.9-1.3c-0.8-0.6-1.5-1.3-2.2-2c-0.4-0.2-0.6-0.4-0.5-0.6c0.1-0.2,0.3-0.2,0.6-0.1c0.9,0,1.9-0.1,2.9-0.1
			c0.3,0,0.4,0,0.3-0.3c-0.1-2.1-0.1-4.1-0.1-5.9c-0.1,0.1-0.1,0.2-0.1,0.3c-0.1,0.1-0.4,0.3-1,0.4c-0.7,0.1-1.4,0.2-2,0.2
			c-0.4,0-0.7,0.1-0.9,0c-0.3,0-0.6-0.1-0.9-0.3c-0.4-0.2-0.6-0.4-0.8-0.5c-0.1,1.5-0.1,2.8-0.2,3.7c-0.1,0.9-0.1,1.5-0.1,1.8
			c0.1,0.4,0.1,0.8-0.1,1.1c-0.2,0.2-0.3,0.5-0.5,0.7c-0.1,0.2-0.4,0.4-0.6,0.7c-0.3,0.2-0.5,0.3-0.8,0.3c-0.2,0-0.3,0-0.3,0
			c-0.2-0.1-0.3-0.2-0.4-0.4c-0.3-0.4-0.5-0.9-0.6-1.6c-0.1-0.4-0.2-1.1-0.2-1.8c0.1-2.2,0.1-3.8,0.2-4.8c0.1-1.8,0.2-3.7,0.2-5.5
			c-0.9,1-1.9,1.9-2.8,2.6c-1.1,0.8-2.3,1.4-3.6,1.7c-0.4,0.1-0.8,0.1-1.2,0c-0.3-0.1-0.7-0.1-1.2,0c-0.3,0-0.5,0-0.5-0.2
			c0.1-0.3,0.2-0.5,0.4-0.6c0.2-0.1,0.3-0.3,0.3-0.4c0-0.1,0.2-0.1,0.5,0c0.2,0.1,0.5,0,0.8-0.2c2.2-1.9,4.2-4.4,6.2-7.5
			C387.1,40.4,387.4,39.7,387.8,39.1z"/>
		<path class="st0" d="M431.9,31.9c0.2,0,0.4,0.3,0.6,0.9c0.1,0.4,0.2,0.8,0,1.1c-0.1,0.3-0.4,0.8-1.2,1.6c-0.9,1-1.6,1.9-2.1,2.9
			c-0.4,0.8-0.5,1.3-0.4,1.7c0,0.5,0.1,1,0.3,1.5c0.5,0.8,1.3,1.9,2.3,3.1c0.3,0.4,0.4,0.7,0.4,1c0,0.2-0.1,0.4-0.3,0.6
			c-0.2,0.1-0.5,0.3-0.9,0.3c-0.7,0.1-1.2,0.3-1.7,0.4c-0.2,0.1-0.5,0-0.9-0.1c-0.3-0.1-0.6-0.4-0.9-0.7c-0.2-0.3-0.4-0.5-0.6-0.6
			c-0.5-0.2-0.7-0.4-0.7-0.4c-0.1,0-0.2-0.1-0.5-0.2c-0.1,0.3-0.1,0.6-0.1,1c0,2,0,3.7,0,5c0,1.9,0,3.4,0,4.4c0,0.7,0,1.3,0,1.6
			c0.1,0.4,0.1,0.8,0,1c-0.2,0.3-0.4,0.5-0.5,0.7c-0.1,0.2-0.3,0.4-0.6,0.7c-0.2,0.2-0.5,0.3-0.8,0.3c-0.2,0-0.3,0-0.4,0
			c-0.2-0.1-0.3-0.2-0.4-0.4c-0.3-0.4-0.5-0.9-0.7-1.6c-0.1-0.4-0.2-0.9-0.3-1.6c0-1.9,0-3.3,0-4.2c0-2,0-4-0.1-6
			c-0.1-1.3-0.3-2.1-0.5-2.4c-0.2-0.3-0.2-0.4-0.1-0.5c0.2-0.2,0.4-0.4,0.5-0.6c0.1-0.2,0.4-0.2,0.8,0c0.3,0.1,1,0.2,1.9,0.3
			c0.5,0,0.9,0.1,1.1,0.3c0.6-0.1,1.1-0.1,1.6-0.1c0.3,0,0.4,0,0.4-0.1c0,0,0-0.2-0.1-0.3c-0.2-0.3-0.4-0.7-0.6-1.3
			c-0.1-0.2-0.2-0.4-0.3-0.7c-0.3-1.3-0.2-2.4,0.3-3.3c0-0.2,0-0.3,0-0.3c0,0-0.1,0-0.3,0c-0.4,0-0.9,0.1-1.5,0
			c-0.6-0.1-1-0.2-1.1-0.2c-0.5-0.2-0.8-0.5-1.1-0.9c-0.3-0.4-0.4-0.7-0.2-0.9c0.1,0,0.2,0,0.4,0c0.3,0,0.8-0.1,1.4-0.3
			c0.6-0.2,1.2-0.5,1.8-0.9c0.5-0.4,0.9-0.7,1.2-0.9c0.2-0.2,0.4-0.5,0.4-0.8c0-0.3,0.1-0.4,0.3-0.4c0.2,0,0.5,0,1,0
			c0.9,0,1.6,0,2.2,0C431.3,31.9,431.7,31.9,431.9,31.9z M445.3,49.7c0.8,0.6,1.6,1.1,2.2,1.6c1.5,1.2,4.1,2.4,7.7,3.7
			c1.3,0.4,2.3,0.8,3.1,1.3c0.4,0.3,0.4,0.5,0,0.7c-0.7,0.3-1.3,0.6-1.8,0.9c-0.7,0.3-1.3,0.6-1.7,0.6c-0.8,0.1-1.4,0.1-1.9,0.1
			c-0.5,0-0.9,0.1-1.2,0.2c-0.3,0.1-0.7,0.1-0.9,0c-0.4-0.1-0.7-0.3-1-0.5c-1.8-1.2-3.3-2.5-4.6-3.8c-0.3,0.3-0.5,0.6-0.6,0.8
			c-0.4,0.5-0.9,1.1-1.6,1.7c-0.9,0.8-1.9,1.5-3,2.3c-1.4,0.9-2.8,1.6-4.2,2.1c-0.4,0.2-0.7,0.3-0.9,0.2c-0.2,0-0.3-0.1-0.4-0.3
			c-0.2-0.3-0.5-0.8-1-1.4c-0.3-0.6-0.4-1-0.2-1.2c0.5-0.6,0.9-1.1,1-1.5c0.2-0.5,0.3-3.7,0.5-9.7c0.2-6.3,0.2-9.8,0.1-10.4
			c-0.1-0.5-0.2-1-0.4-1.3c-0.2-0.3-0.3-0.5-0.4-0.7c-0.2-0.2-0.3-0.4-0.3-0.6c0-0.2,0.1-0.4,0.3-0.5c0.3-0.2,0.5-0.4,0.7-0.7
			c0.1-0.2,0.4-0.3,0.6-0.2c0.5,0.1,1.1,0.3,1.7,0.3c0.7,0.1,1.2,0.3,1.8,0.5c0.5,0.2,0.9,0.5,1.1,0.7c0.2,0.3,0.3,0.5,0.3,0.7
			c-0.1,0.3-0.2,0.7-0.4,1.2c0.3,0,0.6,0,0.9,0.1c0.8,0.2,1.4,0.6,1.7,1.1c0.3,0.4,0.4,0.8,0.3,1.3c-0.1,0.4-0.3,0.7-0.6,0.9
			c-0.4,0.1-0.7,0.1-1.1,0c-0.7-0.3-1.2-0.6-1.6-0.9c-0.1-0.1-0.2-0.2-0.3-0.2c-0.2,1.1-0.3,2.7-0.5,4.8c1.2-0.8,2.7-1.5,4.4-2.3
			c0.3-2.5,0.6-4.8,0.9-6.7c0-0.1-0.1-0.2-0.1-0.2c-0.1,0-0.1-0.1-0.2,0c-0.9,0.3-1.6,0.4-2,0.2c-0.4-0.3-0.8-0.6-1.1-0.9
			c-0.4-0.4-0.7-0.9-0.9-1.3c-0.1-0.3-0.2-0.6-0.2-0.8c0.1-0.2,0.4-0.3,1-0.3c0.6-0.1,1.1-0.3,1.5-0.3c1.4-0.3,2.2-0.6,2.4-0.9
			c0.3-0.3,0.7-0.4,1-0.5c0.4,0,0.9,0.2,1.6,0.6c0.7,0.3,1.3,0.5,1.6,0.7c0.4,0.2,0.7,0.4,0.9,0.7c0.3,0.3,0.5,0.6,0.6,1
			c0.2,0.5,0.1,0.9-0.2,1.2c-0.3,0.3-0.5,0.6-0.6,0.8c-0.7,1.6-1.2,3.2-1.5,4.8c-0.1,0.5-0.3,1.1-0.6,1.6c0.1,0.1,0.1,0.1,0.1,0.2
			c0.1,0.1,0.1,0.3,0.1,0.3c0,0.1,0,0.2,0,0.4c0,0.2-0.1,0.4-0.1,0.6c-0.1,0.2-0.1,0.4-0.2,0.5c-0.1,0.2-0.4,0.4-0.9,0.7
			c-1.6,1.1-2.9,1.9-4.2,2.5c-0.7,0.3-1.2,0.5-1.6,0.7c0.4,0.2,0.9,0.4,1.3,0.7c0.5,0.3,1.1,0.7,1.6,1c1-0.6,1.8-1.1,2.4-1.5
			c0.9-0.6,1.4-1.1,1.5-1.4c0.3-0.4,0.6-0.5,0.8-0.3c0.3,0.1,0.7,0.2,1.3,0.2c0.7,0,1.3,0.2,1.7,0.5c0.5,0.3,0.7,0.7,0.7,1
			c0,0.1,0,0.2,0,0.3c-0.1,0.1-0.2,0.3-0.2,0.5c0,0.2-0.3,0.4-0.8,0.7c-1.2,0.4-2.3,0.7-3.4,0.8C446.9,49.5,446.1,49.6,445.3,49.7z
			 M437.6,56.5c0,0,0.1,0,0.4,0c2.3-1,3.7-1.5,4.2-1.7c0.5-0.2,1.2-0.5,2.3-1c-0.2-0.2-0.3-0.4-0.5-0.6c-1.9-2.1-3.2-3.3-3.7-3.7
			c-0.6-0.4-1.2-0.8-1.8-1.1c0,0-0.1,0-0.1,0C438,53,437.7,55.7,437.6,56.5z"/>
		<path class="st0" d="M472.2,37.3c-0.1-0.3-0.1-0.4,0-0.4c0.3-0.1,0.4-0.2,0.4-0.5c0-0.3,0.6-0.3,1.7,0c1.4,0.3,2.5,0.8,3.5,1.6
			c0.5,0.4,0.7,0.8,0.8,1.3c0,0.4-0.3,0.9-0.8,1.4c-1.4,1.2-2.5,2.1-3.2,2.8c-0.9,1-2,1.9-3,2.8c-1.2,1-2.3,1.6-3.1,2.1
			c-0.6,0.3-1.1,0.6-1.5,0.7c-0.3,0.2-0.7,0.3-1.2,0.3c-0.4,0-0.7,0-1,0c-0.3,0-0.5-0.1-0.5-0.3c0-0.3,0.1-0.5,0.3-0.6
			c0.1-0.1,0.2-0.2,0.3-0.4c0-0.1,0.2-0.1,0.5-0.1c0.2,0,0.4,0,0.6-0.3c0.9-1,1.9-2.5,3.2-4.5c1.1-1.8,2.1-3.5,2.8-5.1
			C472.2,37.7,472.2,37.4,472.2,37.3z M475.8,59.5c-0.4,0.4-0.9,0.5-1.3,0.4c-0.6-0.1-1-0.3-1.3-0.6c-0.5-0.5-0.9-0.9-1.4-1.1
			c-0.6-0.3-0.9-0.7-1.1-1.2c-0.2-0.7-0.3-1.1-0.2-1.4c0.1-0.3,0.6-0.7,1.5-1c1.5-0.6,2.8-1.9,3.8-3.8c0.8-1.5,1.2-3.1,1.2-4.6
			c0-0.4,0.1-0.8,0.3-1.1c0.1-0.2,0.3-0.2,0.5-0.1c0.7,0.3,1.6,0.5,2.7,0.6c1.1,0.1,1.7,0.3,2,0.6c0.4,0.3,0.6,0.7,0.7,1
			c0.1,0.3-0.1,0.6-0.5,0.9c-0.4,0.4-0.7,0.8-0.9,1.2c-0.2,0.4-1.1,1.8-2.8,4.2c-0.1,0.2-0.2,0.3-0.1,0.3c0.1,0.1,0.2,0.1,0.5,0
			c1.9-0.3,3.8-0.6,5.8-0.7c-0.3-0.8-0.6-1.5-0.8-2.2c-0.3-0.6-0.3-1-0.2-1c0.2-0.1,0.8,0,1.8,0.4c2,0.9,3.5,2,4.3,3.3
			c0.7,0.9,1.1,2,1.3,3.5c0.2,0.6,0,1.1-0.4,1.7c-0.3,0.4-0.7,0.8-1.2,1.1c-0.3,0.2-0.8,0.2-1.3,0.2c-0.4,0-0.8-0.5-1.2-1.4
			c-0.3-0.5-0.5-1-0.7-1.5c-3.5,0.8-5.9,1.4-7.3,1.6C477.4,59,476.1,59.2,475.8,59.5z M481.9,30.8c0.3,0,0.7,0.1,1.3,0.3
			c0.7,0.3,1.3,0.5,1.7,0.7c0.3,0.2,0.6,0.4,0.8,0.6c0.3,0.3,0.5,0.5,0.6,0.7c0.2,0.3,0.4,0.6,0.8,1.1c2.1,3,3.8,5.2,5.2,6.6
			c1.3,1.3,2.4,2.2,3.4,2.9c0.9,0.6,2.1,1.1,3.6,1.7c0.7,0.2,1.3,0.6,1.9,1c0.4,0.3,0.6,0.5,0.6,0.6c-0.1,0.1-0.4,0.2-0.9,0.4
			c-0.4,0.1-0.8,0.2-1.2,0.2c-0.4,0-0.7,0.1-0.9,0.1c-0.4,0.1-0.8,0.2-1.2,0.4c-0.3,0.1-0.8,0.2-1.3,0.2c-0.5,0.1-1,0.2-1.6,0.2
			c-0.5,0.1-1,0.1-1.3,0.1c-0.5-0.1-0.8-0.2-1.1-0.4c-0.5-0.3-1-0.6-1.3-1c-2.2-1.9-3.7-3.5-4.7-4.7c-1-1.4-1.9-2.7-2.5-3.9
			c-0.5-0.9-1.5-2.7-2.9-5.4c-0.2-0.4-0.5-0.6-0.8-0.6c-0.3,0-0.6-0.1-0.9-0.2c-0.3-0.2-0.5-0.3-0.5-0.3c0-0.2,0.2-0.5,0.5-0.7
			c0.4-0.3,0.7-0.5,0.8-0.8c0.1-0.2,0.2-0.3,0.4-0.3c0.2,0,0.4,0,0.6,0.2C481.3,30.7,481.6,30.8,481.9,30.8z"/>
		<path class="st0" d="M522.8,43.5c0.4-0.4,1.3-0.4,2.7,0c1.1,0.3,2.1,0.7,2.8,1.2c0.4,0.2,0.7,0.6,1.1,1.2c0.3,0.4,0.1,1.2-0.6,2.4
			c-0.4,0.6-0.8,1.3-1.3,2.1c0.3,0.1,0.6,0.2,0.8,0.5c0.2,0.3,0.3,0.5,0.1,0.7c-0.3,0.3-0.5,0.8-0.6,1.3c-0.2,0.5-0.3,0.7-0.4,0.7
			c-0.2,0-0.3,0-0.4,0.1c-0.1,0.1-0.3,0.2-0.7,0.2c-2.5,0.1-5.2,0.5-8.1,1.1c-0.5,0.1-1,0.1-1.3,0.1c-0.1,0.1-0.1,0.1-0.1,0.1
			c-0.2,0.4-0.6,0.3-1.2-0.3c-0.6-0.5-1.2-1.6-1.9-3.2c-0.8-1.8-1.3-3.1-1.5-3.9c-0.1-0.5-0.2-0.8-0.3-1c-0.1-0.4-0.2-0.7-0.2-0.9
			c0.1-0.4,0.3-0.5,0.8-0.4c1,0.3,1.9,0.4,2.7,0.3c0.2,0,0.4,0,0.6,0c2.3-0.8,4.1-1.3,5.4-1.5C522.1,43.9,522.7,43.7,522.8,43.5z
			 M526.9,37.3c0.4,0.1,0.7,0.2,0.9,0.2c0.3,0.1,0.5,0.5,0.6,0.9c0,0.4,0,0.8,0,1c-0.1,0.3-0.3,0.5-0.5,0.6
			c-0.2,0.2-0.4,0.3-0.6,0.4c-0.2,0.1-0.3,0.2-0.5,0.3c-1.3,0.6-3.4,1.3-6.4,1.8c-1.6,0.3-3,0.2-4.3-0.3c-0.8-0.3-1.4-0.8-1.7-1.3
			c-0.7-0.9-0.8-1.3-0.3-1.3c0.3,0,0.7-0.1,1.3-0.2c2-0.3,4.1-0.8,6.2-1.4c2.4-0.6,3.8-0.9,4.3-0.9
			C526.2,37.3,526.5,37.3,526.9,37.3z M523.5,30.5c1.9-0.4,4.2-0.6,7-0.7c1.7,0,2.9,0,3.8,0.2c0.6,0.1,1.3,0.4,2,0.8
			c0.7,0.4,1.3,0.8,1.6,1.3c0.2,0.3,0.4,0.7,0.5,1.1c0.1,0.5,0.1,0.9-0.1,1.4c-0.1,0.3-0.2,0.5-0.1,0.7c0,0.2-0.1,0.6-0.3,1.1
			c-0.1,0.4-0.2,3.4-0.1,8.9c0.1,4.6,0.2,7.8,0.3,9.7c0.1,1,0.1,2.1,0,3.2c-0.1,0.7-0.4,1.2-0.9,1.5c-0.7,0.4-1.4,0.8-2.1,1.2
			c-0.5,0.3-1.1,0.6-1.7,0.7c-0.3,0.1-0.7,0-1.1-0.2c-0.4-0.3-0.8-0.6-1.4-1c-0.4-0.3-0.8-0.7-1.3-1.1c-0.4-0.3-0.9-0.7-1.5-1.1
			c-0.3-0.2-0.6-0.4-0.9-0.6c-0.3-0.2-0.4-0.3-0.3-0.5c0.1-0.1,0.6-0.1,1.4,0c1.4,0,2.6,0,3.4-0.1c0.3,0,0.5-0.2,0.4-0.6
			c-0.2-8.9,0-16.2,0.6-21.7c0-0.3,0-0.4-0.1-0.5c-0.1-0.1-0.2-0.1-0.4-0.1c-0.2,0-0.4,0-0.6,0.1c-0.7,0.3-1.4,0.6-2.1,0.8
			c-0.5,0.1-1.2,0.3-2.1,0.5c-0.6,0.1-1.2,0.3-1.7,0.3c-0.7,0.1-1.4,0.3-2,0.4c-0.5,0.1-1.1,0.2-1.7,0.2c-0.6,0-1.2-0.2-1.8-0.5
			c-0.6-0.4-1.3-0.9-2-1.7c-0.7-0.8-1.2-1.5-1.6-2.2c-0.1-0.2,0-0.3,0.2-0.4c0.2-0.2,0.3-0.3,0.3-0.5c-0.1-0.2,0.3-0.2,1-0.2
			C519.9,31,521.6,30.9,523.5,30.5z M518.7,51.1c0.1,0,0.2,0,0.3-0.1c0.7-0.2,1.5-0.4,2.3-0.5c0.2-0.4,0.4-0.9,0.6-1.5
			c0.2-0.7,0.3-1.2,0.3-1.7c0-0.2,0-0.4,0-0.4c-0.1-0.1-0.2-0.1-0.4-0.1c-0.7,0.1-1.4,0.3-2.2,0.5c-0.6,0.1-1,0.3-1.4,0.5
			c0.1,0.2,0.1,0.3,0.1,0.6C518.5,49.6,518.6,50.4,518.7,51.1z"/>
	</g>
	<g>
		<path class="st0" d="M205.4,66.7c0.1,0,0.1,0.1,0.1,0.2v7.2l-0.5,1.4c-0.1,0.1-0.2,0.2-0.4,0.4c-0.1,0.1-0.3,0.2-0.4,0.3l-0.9,0.4
			h-1.2l-1-0.5l-0.6-0.5l0-0.1c-0.2-0.6-0.4-1-0.5-1.3v-1c0-0.1,0.1-0.2,0.2-0.2c0.2,0,0.3,0,0.4,0.1c0,0.1,0,0.3,0,0.5
			c0,0.2,0,0.4,0,0.5l0.4,1.2l0.4,0.4l0.9,0.4h0.8l0.8-0.4l0.4-0.4l0.5-1.2v-7.1c0-0.1,0.1-0.2,0.2-0.2
			C205.2,66.7,205.3,66.7,205.4,66.7z"/>
		<path class="st0" d="M208.4,66.8L208.4,66.8l0,6.7l0.4,1.2l0.9,0.8l1.3,0.4h0.9l1.3-0.4l0.9-0.8l0.5-1.2v-6.6
			c0-0.1,0.1-0.2,0.2-0.2c0.2,0,0.3,0,0.4,0.1l0,0.1v6.7c-0.2,0.6-0.4,1.1-0.5,1.4c-0.4,0.3-0.7,0.7-1.1,1c-0.2,0.1-0.4,0.1-0.8,0.2
			c-0.3,0.1-0.6,0.2-0.8,0.2h-1.1c-0.3-0.1-0.8-0.3-1.5-0.5l-1.1-1c-0.1-0.3-0.3-0.8-0.5-1.4v-6.8c0-0.1,0.1-0.2,0.3-0.2
			C208.2,66.7,208.3,66.7,208.4,66.8z"/>
		<path class="st0" d="M219,66.8l6.2,8.5v-8.4c0-0.1,0.1-0.2,0.2-0.2c0.2,0,0.3,0,0.4,0.1l0,0.1v9.4c0,0.1-0.1,0.2-0.3,0.2
			c-0.1,0-0.2,0-0.3-0.1l-0.1-0.1l-6.2-8.4v8.4c0,0.1-0.1,0.2-0.2,0.2h-0.1c-0.1,0-0.2,0-0.2-0.1c-0.1,0-0.1-0.1-0.1-0.2v-9.4
			c0-0.1,0.1-0.2,0.3-0.2C218.8,66.7,218.9,66.7,219,66.8z"/>
		<path class="st0" d="M229.7,66.9l3.5,4l3.7-4.2c0.1,0,0.1-0.1,0.2-0.1c0.2,0,0.3,0.1,0.3,0.2c0,0.1,0,0.2-0.1,0.3l-3.8,4.3v4.8
			c0,0.1-0.1,0.2-0.2,0.2c-0.2,0-0.3,0-0.3-0.1l0-0.1v-4.8l-3.9-4.4c0,0,0-0.1,0-0.1c0-0.1,0-0.1,0-0.1c0.1-0.1,0.2-0.1,0.3-0.1
			c0,0,0,0,0,0c0,0,0,0,0,0C229.5,66.7,229.6,66.8,229.7,66.9z"/>
		<path class="st0" d="M239.4,66.8L239.4,66.8l0,6.7l0.4,1.2l0.9,0.8l1.3,0.4h0.9l1.3-0.4l0.9-0.8l0.5-1.2v-6.6
			c0-0.1,0.1-0.2,0.2-0.2c0.2,0,0.3,0,0.4,0.1l0,0.1v6.7c-0.2,0.6-0.4,1.1-0.5,1.4c-0.4,0.3-0.7,0.7-1.1,1c-0.2,0.1-0.4,0.1-0.8,0.2
			c-0.3,0.1-0.6,0.2-0.8,0.2h-1.1c-0.3-0.1-0.8-0.3-1.5-0.5l-1.1-1c-0.1-0.3-0.3-0.8-0.5-1.4v-6.8c0-0.1,0.1-0.2,0.3-0.2
			C239.2,66.7,239.3,66.7,239.4,66.8z"/>
		<path class="st0" d="M263.4,66.7c0.3,0.1,0.8,0.3,1.5,0.5c0.1,0.1,0.3,0.2,0.6,0.5l0.5,1c0,0.2,0,0.6,0,1
			c-0.1,0.1-0.2,0.3-0.3,0.5c-0.1,0.2-0.2,0.4-0.3,0.5l-0.6,0.5l-0.1,0l-1.5,0.4h-0.5l3.1,4.4c0,0,0,0.1,0,0.1c0,0.1,0,0.1-0.1,0.2
			c0,0.1-0.2,0.1-0.3,0.1c-0.1,0-0.1-0.1-0.2-0.1l-3.3-4.7h-2.9v4.6c0,0.1-0.1,0.2-0.2,0.2H259c-0.1,0-0.2,0-0.2-0.1
			c-0.1,0-0.1-0.1-0.1-0.2v-9.4c0-0.1,0.1-0.2,0.2-0.2H263.4z M264.6,67.7l-1.3-0.4l-4,0v3.8h4l1.3-0.4l0.4-0.3l0.4-0.8v-0.7L265,68
			L264.6,67.7z"/>
		<path class="st0" d="M275.1,67.2l1,1l0.5,1l0.5,1.3v2.3l-0.5,1.4l-0.5,0.9l-1.1,1l-1,0.5h-2.1l-1-0.5l-1.1-1l-0.5-1l-0.5-1.3v-2.4
			c0.1-0.3,0.3-0.8,0.5-1.4l0.5-0.9l1.1-1c0.2-0.1,0.6-0.3,1.1-0.5l2.1,0L275.1,67.2z M274.8,67.6l-0.8-0.4h-1.8l-0.8,0.4l-0.9,0.8
			l-0.5,0.8l-0.5,1.2v2.2l0.4,1.2l0.5,0.9l0.9,0.8l0.8,0.4h1.8l0.9-0.4l0.9-0.8l0.4-0.8l0.5-1.3v-2.1l-0.4-1.2l-0.5-0.9L274.8,67.6z
			"/>
		<path class="st0" d="M283.9,66.8l3.9,9.3c0,0.2-0.1,0.3-0.4,0.3c-0.1,0-0.2-0.1-0.3-0.3c0-0.1-0.1-0.2-0.1-0.4l-1-2.4h-4.7
			l-1.2,2.9c0,0.1-0.1,0.1-0.2,0.1c-0.2,0-0.3-0.1-0.3-0.2c0,0,0,0,0-0.1c0,0,0,0,0-0.1c0,0,0-0.1,0-0.1l3.9-9.3
			c0.1-0.1,0.1-0.1,0.2-0.1C283.8,66.7,283.9,66.7,283.9,66.8z M281.6,72.9h4.2l-2.1-5.1L281.6,72.9z"/>
		<path class="st0" d="M295.5,67.2L295.5,67.2l1.1,1l0.5,1l0.5,1.3v2.3l-0.5,1.4l-0.5,0.9l-1,0.9l-0.1,0.1c-0.3,0.1-0.8,0.2-1.5,0.4
			h-3.5c-0.1,0-0.2-0.1-0.2-0.2v-9.4c0-0.1,0.1-0.2,0.2-0.2h3.5L295.5,67.2z M295.1,67.7l-1.3-0.4l-3.1,0v8.7h3.1l1.3-0.4l0.9-0.8
			l0.5-0.8l0.5-1.3v-2.1l-0.4-1.2l-0.5-0.9L295.1,67.7z"/>
		<path class="st0" d="M314.3,66.7c0.3,0.1,0.8,0.3,1.5,0.5c0.2,0.2,0.6,0.5,1.1,1c0,0.1,0.1,0.1,0.1,0.2c0,0,0,0.1,0,0.1
			c0,0.1-0.1,0.2-0.2,0.2c-0.1,0-0.2,0-0.3-0.1l-0.9-0.9l-1.3-0.4h-1.9l-1.3,0.4l-0.8,0.8v0.7l0.4,0.8l0.4,0.4l1,0.4l2.9,0.9l1,0.5
			c0.2,0.1,0.4,0.4,0.7,0.7l0.4,0.8c0,0.3,0,0.8,0,1.5l-0.1,0.1l-1,0.9c-0.2,0.1-0.5,0.2-0.9,0.3l-0.7,0.2h-2.1
			c-0.3-0.1-0.8-0.3-1.5-0.5l-0.1-0.1l-1-0.9c0,0,0-0.1,0-0.2c0-0.1,0.1-0.2,0.2-0.2c0.1,0,0.2,0,0.3,0.1l0.9,0.9l1.3,0.4h1.9
			l1.3-0.4l0.9-0.8v-1.1l-0.4-0.8l-0.4-0.4l-1-0.4l-2.9-0.9l-1-0.5c-0.1-0.1-0.3-0.2-0.4-0.3c-0.2-0.1-0.3-0.3-0.3-0.4
			c0-0.1-0.1-0.2-0.2-0.4c-0.1-0.2-0.2-0.3-0.2-0.4v-1c0-0.1,0-0.1,0.1-0.2c0.1-0.1,0.1-0.1,0.1-0.1l0.8-0.7l0.1-0.1
			c0.3-0.1,0.8-0.3,1.5-0.4l0.1,0L314.3,66.7z"/>
		<path class="st0" d="M323.7,66.8l3.9,9.3c0,0.2-0.1,0.3-0.4,0.3c-0.1,0-0.2-0.1-0.3-0.3c0-0.1-0.1-0.2-0.1-0.4l-1-2.4H321
			l-1.2,2.9c0,0.1-0.1,0.1-0.2,0.1c-0.2,0-0.3-0.1-0.3-0.2c0,0,0,0,0-0.1c0,0,0,0,0-0.1c0,0,0-0.1,0-0.1l3.9-9.3
			c0.1-0.1,0.1-0.1,0.3-0.1C323.5,66.7,323.6,66.7,323.7,66.8z M321.3,72.9h4.3l-2.1-5.1L321.3,72.9z"/>
		<path class="st0" d="M336.6,66.7c0.1,0,0.2,0.1,0.2,0.2c0,0.1,0,0.2-0.1,0.3c0,0-0.1,0.1-0.2,0.1h-6v3.8h3.7
			c0.1,0,0.1,0.1,0.2,0.1c0,0,0,0.1,0,0.1c0,0.1,0,0.1-0.1,0.2c-0.1,0.1-0.1,0.1-0.2,0.1h-3.6v4.6c0,0.1-0.1,0.2-0.2,0.2h-0.1
			c-0.1,0-0.2,0-0.2-0.1c-0.1,0-0.1-0.1-0.1-0.2v-9.4c0-0.1,0.1-0.1,0.2-0.2L336.6,66.7z"/>
		<path class="st0" d="M345.3,66.7c0.1,0,0.2,0.1,0.2,0.2c0,0.1,0,0.2-0.1,0.3c0,0-0.1,0.1-0.2,0.1h-6v3.8h3.7
			c0.1,0,0.1,0.1,0.2,0.1c0,0,0,0.1,0,0.1c0,0.1,0,0.1-0.1,0.2c-0.1,0.1-0.1,0.1-0.2,0.1h-3.6v4.3h6.1c0.1,0,0.2,0.1,0.2,0.2
			c0,0.1,0,0.2-0.1,0.3c-0.1,0.1-0.2,0.1-0.2,0.1h-6.4c-0.1,0-0.2-0.1-0.2-0.2v-9.4c0-0.1,0.1-0.1,0.3-0.2L345.3,66.7z"/>
		<path class="st0" d="M355,66.7c0.1,0,0.2,0.1,0.2,0.2c0,0.1,0,0.2-0.1,0.3l-0.1,0h-3.1v9c0,0.1-0.1,0.2-0.2,0.2h-0.1
			c-0.1,0-0.2,0-0.2-0.1c-0.1,0-0.1-0.1-0.1-0.2v-9h-3.1c-0.2,0-0.2-0.1-0.2-0.3c0-0.1,0-0.1,0.1-0.2c0.1,0,0.1-0.1,0.2-0.1
			L355,66.7z"/>
		<path class="st0" d="M357.2,66.9l3.5,4l3.7-4.2c0.1,0,0.1-0.1,0.2-0.1c0.2,0,0.3,0.1,0.3,0.2c0,0.1,0,0.2-0.1,0.3l-3.8,4.3v4.8
			c0,0.1-0.1,0.2-0.2,0.2c-0.2,0-0.3,0-0.3-0.1l0-0.1v-4.8l-3.9-4.4c0,0,0-0.1,0-0.1c0-0.1,0-0.1,0-0.1c0.1-0.1,0.2-0.1,0.3-0.1
			c0,0,0,0,0,0c0,0,0,0,0,0C357,66.7,357.1,66.8,357.2,66.9z"/>
		<path class="st0" d="M382.6,66.7c0.1,0,0.2,0.1,0.2,0.2c0,0.1,0,0.2-0.1,0.3l-0.1,0h-3.1v9c0,0.1-0.1,0.2-0.2,0.2h-0.1
			c-0.1,0-0.2,0-0.2-0.1c-0.1,0-0.1-0.1-0.1-0.2v-9h-3.1c-0.2,0-0.3-0.1-0.3-0.3c0-0.1,0-0.1,0.1-0.2c0.1,0,0.1-0.1,0.2-0.1
			L382.6,66.7z"/>
		<path class="st0" d="M390.9,66.7c0.1,0,0.2,0.1,0.2,0.2c0,0.1,0,0.2-0.1,0.3c0,0-0.1,0.1-0.2,0.1h-6v3.8h3.7
			c0.1,0,0.1,0.1,0.2,0.1c0,0,0,0.1,0,0.1c0,0.1,0,0.1-0.1,0.2c-0.1,0.1-0.1,0.1-0.2,0.1h-3.6v4.3h6.1c0.1,0,0.2,0.1,0.2,0.2
			c0,0.1,0,0.2-0.1,0.3c-0.1,0.1-0.2,0.1-0.2,0.1h-6.4c-0.1,0-0.2-0.1-0.2-0.2v-9.4c0-0.1,0.1-0.1,0.3-0.2L390.9,66.7z"/>
		<path class="st0" d="M399.6,67.2l1,1l0.5,1c0,0.1,0,0.2-0.1,0.3c-0.1,0-0.1,0-0.2,0c0,0-0.1,0-0.1,0c-0.1,0-0.1-0.1-0.2-0.1
			l-0.5-0.8l-0.9-0.8l-0.8-0.4h-1.8l-0.8,0.4l-0.9,0.8l-0.5,0.9l-0.4,1.2v2.2l0.5,1.3l0.5,0.8l0.9,0.8l0.8,0.4h1.8l0.8-0.4l0.9-0.8
			l0.5-0.9c0.1-0.1,0.2-0.1,0.3-0.1c0.1,0,0.2,0.1,0.2,0.2v0.1c-0.1,0.2-0.3,0.5-0.5,1l-1.1,1l-1,0.5h-2.1l-1-0.5l-1.1-1l-0.5-1
			l-0.5-1.3v-2.4c0.1-0.3,0.3-0.8,0.5-1.4l0.5-0.9l1.1-1c0.2-0.1,0.6-0.3,1.1-0.5l2.1,0L399.6,67.2z"/>
		<path class="st0" d="M404.1,66.9L404.1,66.9l0,4.3h6.2v-4.2c0-0.1,0.1-0.2,0.2-0.2c0.2,0,0.3,0,0.4,0.1l0,0.1v9.4
			c0,0.1-0.1,0.2-0.2,0.2h-0.1c-0.1,0-0.2,0-0.2-0.1c-0.1,0-0.1-0.1-0.1-0.2v-4.6h-6.2v4.6c0,0.1-0.1,0.2-0.2,0.2h-0.1
			c-0.1,0-0.2,0-0.2-0.1c-0.1,0-0.1-0.1-0.1-0.2v-9.4c0-0.1,0.1-0.2,0.3-0.2C403.9,66.7,404,66.7,404.1,66.9z"/>
		<path class="st0" d="M414.7,66.8l6.2,8.5v-8.4c0-0.1,0.1-0.2,0.2-0.2c0.2,0,0.3,0,0.4,0.1l0,0.1v9.4c0,0.1-0.1,0.2-0.3,0.2
			c-0.1,0-0.2,0-0.3-0.1l-0.1-0.1l-6.2-8.4v8.4c0,0.1-0.1,0.2-0.2,0.2h-0.1c-0.1,0-0.2,0-0.2-0.1c-0.1,0-0.1-0.1-0.1-0.2v-9.4
			c0-0.1,0.1-0.2,0.3-0.2C414.6,66.7,414.7,66.7,414.7,66.8z"/>
		<path class="st0" d="M431.1,67.2l1,1l0.5,1l0.5,1.3v2.3l-0.5,1.4l-0.5,0.9l-1.1,1l-1,0.5H428l-1-0.5l-1.1-1l-0.5-1l-0.5-1.3v-2.4
			c0.1-0.3,0.3-0.8,0.5-1.4l0.5-0.9l1.1-1c0.2-0.1,0.6-0.3,1.1-0.5l2.1,0L431.1,67.2z M430.8,67.6l-0.9-0.4h-1.8l-0.8,0.4l-0.9,0.8
			l-0.5,0.8l-0.5,1.2v2.2l0.4,1.2l0.5,0.9l0.9,0.8l0.8,0.4h1.8l0.9-0.4l0.9-0.8l0.4-0.8l0.5-1.3v-2.1l-0.4-1.2l-0.5-0.9L430.8,67.6z
			"/>
		<path class="st0" d="M436.1,66.8L436.1,66.8l0,9.1h5.6c0.1,0,0.2,0.1,0.2,0.2c0,0.2,0,0.3-0.1,0.3l-0.1,0h-6
			c-0.1,0-0.2-0.1-0.2-0.2v-9.4c0-0.1,0.1-0.2,0.2-0.2C435.9,66.7,436,66.7,436.1,66.8z"/>
		<path class="st0" d="M450.1,67.2l1,1l0.5,1l0.5,1.3v2.3l-0.5,1.4l-0.5,0.9l-1.1,1l-1,0.5h-2.1l-1-0.5l-1.1-1l-0.5-1l-0.5-1.3v-2.4
			c0.1-0.3,0.3-0.8,0.5-1.4l0.5-0.9l1.1-1c0.2-0.1,0.6-0.3,1.1-0.5l2.1,0L450.1,67.2z M449.7,67.6l-0.9-0.4H447l-0.8,0.4l-0.9,0.8
			l-0.5,0.8l-0.5,1.2v2.2l0.4,1.2l0.5,0.9l0.9,0.8l0.8,0.4h1.8l0.9-0.4l0.9-0.8l0.4-0.8l0.5-1.3v-2.1l-0.4-1.2l-0.5-0.9L449.7,67.6z
			"/>
		<path class="st0" d="M460.7,67.2l1,1l0.5,1c0,0.1,0,0.2-0.1,0.3c-0.1,0-0.1,0-0.2,0c0,0-0.1,0-0.1,0c-0.1,0-0.1-0.1-0.2-0.1
			l-0.5-0.8l-0.9-0.8l-0.9-0.4h-1.8l-0.8,0.4l-0.9,0.8l-0.5,0.9l-0.4,1.2v2.2l0.5,1.3l0.5,0.8l0.9,0.8l0.8,0.4h1.8l0.8-0.4l0.9-0.8
			l0.4-0.8v-1h-2.2c-0.1,0-0.2-0.1-0.2-0.2c0,0,0,0,0-0.1c0-0.1,0-0.2,0.1-0.2l0.1,0h2.6c0.1,0,0.1,0.1,0.2,0.1l0,0.1v1.5l-0.5,1
			l-1.1,1l-1,0.5h-2.1l-1-0.5l-1.1-1l-0.5-1l-0.5-1.3v-2.4c0.1-0.3,0.3-0.8,0.5-1.4l0.5-0.9l1.1-1c0.2-0.1,0.6-0.3,1.1-0.5l2,0
			L460.7,67.2z"/>
		<path class="st0" d="M465.3,66.9l3.5,4l3.7-4.2c0.1,0,0.1-0.1,0.2-0.1c0.2,0,0.3,0.1,0.3,0.2c0,0.1,0,0.2-0.1,0.3l-3.8,4.3v4.8
			c0,0.1-0.1,0.2-0.2,0.2c-0.2,0-0.3,0-0.3-0.1l0-0.1v-4.8l-3.9-4.4c0,0,0-0.1,0-0.1c0-0.1,0-0.1,0-0.1c0.1-0.1,0.2-0.1,0.3-0.1
			c0,0,0,0,0,0c0,0,0,0,0,0C465.1,66.7,465.1,66.8,465.3,66.9z"/>
		<path class="st0" d="M489.8,67.2l1,1l0.5,1c0,0.1,0,0.2-0.1,0.3c-0.1,0-0.1,0-0.2,0c0,0-0.1,0-0.1,0c-0.1,0-0.1-0.1-0.2-0.1
			l-0.5-0.8l-0.9-0.8l-0.8-0.4h-1.8l-0.8,0.4l-0.9,0.8l-0.5,0.9l-0.4,1.2v2.2l0.5,1.3l0.5,0.8l0.9,0.8l0.9,0.4h1.8l0.9-0.4l0.9-0.8
			l0.5-0.9c0.1-0.1,0.2-0.1,0.3-0.1c0.1,0,0.2,0.1,0.2,0.2v0.1c-0.1,0.2-0.3,0.5-0.5,1l-1.1,1l-1,0.5h-2.1l-1-0.5l-1.1-1l-0.5-1
			l-0.5-1.3v-2.4c0.1-0.3,0.3-0.8,0.5-1.4l0.5-0.9l1.1-1c0.2-0.1,0.6-0.3,1.1-0.5l2.1,0L489.8,67.2z"/>
		<path class="st0" d="M500,67.2l1,1l0.5,1l0.5,1.3v2.3l-0.5,1.4l-0.5,0.9l-1,1l-1,0.5h-2.1l-1-0.5l-1.1-1l-0.5-1l-0.5-1.3v-2.4
			c0.1-0.3,0.3-0.8,0.5-1.4l0.5-0.9l1.1-1c0.2-0.1,0.6-0.3,1.1-0.5l2.1,0L500,67.2z M499.6,67.6l-0.9-0.4H497l-0.8,0.4l-0.9,0.8
			l-0.5,0.8l-0.5,1.2v2.2l0.4,1.2l0.5,0.9l0.9,0.8l0.8,0.4h1.8l0.9-0.4l0.9-0.8l0.4-0.8l0.5-1.3v-2.1l-0.4-1.2l-0.5-0.9L499.6,67.6z
			"/>
		<path class="st0" d="M505.4,75.3c0,0.1,0,0.1,0,0.1c-0.1,0.1-0.2,0.2-0.3,0.3l0.1,0.1c0.1-0.1,0.1-0.1,0.2-0.2
			c0.1-0.1,0.2-0.1,0.3-0.1c0,0,0.1,0,0.1,0c0.1,0,0.2,0.1,0.2,0.2c0,0.1,0,0.2-0.1,0.2c-0.1,0.1-0.1,0.1-0.2,0.2
			c-0.1,0.1-0.1,0.1-0.2,0.2c-0.1,0.1-0.2,0.1-0.3,0.1c0,0,0,0,0,0c0,0,0,0,0,0l-0.1,0l-0.6-0.5c0,0-0.1-0.1-0.1-0.2l0-0.1l0.6-0.5
			c0,0,0.1,0,0.1,0C505.3,75.1,505.4,75.1,505.4,75.3z"/>
		<path class="st0" d="M510.2,75.1l0.5,0.5l0,0.1v1l-0.5,1l-0.6,0.5c-0.1,0-0.1,0-0.1,0c-0.1,0-0.1,0-0.1,0c-0.1,0-0.2-0.1-0.2-0.2
			c0-0.1,0-0.1,0-0.2l0.5-0.5l0.4-0.8c0-0.1,0-0.1,0-0.1c0,0-0.1,0-0.2,0h-0.1l-0.1-0.1l-0.6-0.5c0,0,0-0.1,0-0.2l0-0.1l0.6-0.5
			c0,0,0.1,0,0.2,0C510.1,75.1,510.1,75.1,510.2,75.1z"/>
		<path class="st0" d="M514.7,66.8L514.7,66.8l0,9.1h5.6c0.1,0,0.2,0.1,0.2,0.2c0,0.2,0,0.3-0.1,0.3l-0.1,0h-6
			c-0.1,0-0.2-0.1-0.2-0.2v-9.4c0-0.1,0.1-0.2,0.3-0.2C514.5,66.7,514.6,66.7,514.7,66.8z"/>
		<path class="st0" d="M529.5,66.7c0.1,0,0.2,0.1,0.2,0.2c0,0.1,0,0.2-0.1,0.3l-0.1,0h-3.1v9c0,0.1-0.1,0.2-0.2,0.2H526
			c-0.1,0-0.2,0-0.2-0.1c0,0-0.1-0.1-0.1-0.2v-9h-3.1c-0.2,0-0.2-0.1-0.2-0.3c0-0.1,0-0.1,0.1-0.2c0.1,0,0.1-0.1,0.2-0.1L529.5,66.7
			z"/>
		<path class="st0" d="M536.3,67.2L536.3,67.2l1.1,1l0.5,1l0.5,1.3v2.3l-0.5,1.4l-0.5,0.9l-1,0.9l-0.1,0.1c-0.3,0.1-0.8,0.2-1.5,0.4
			h-3.5c-0.1,0-0.2-0.1-0.2-0.2v-9.4c0-0.1,0.1-0.2,0.3-0.2h3.5L536.3,67.2z M536,67.7l-1.3-0.4l-3.1,0v8.7h3.1l1.3-0.4l0.9-0.8
			l0.5-0.8l0.5-1.3v-2.1l-0.4-1.2l-0.5-0.9L536,67.7z"/>
	</g>
	<g>
		<path class="st1" d="M45,66.5c-1.3,2.2-3,4.3-5.4,5.6c-5.2,2.7,9.2,1.7,16.1-7.8c4.9-1.6,10.1-3.3,13.7-7.9
			c21.9-28.4,16.8,25-18.8,15c-1.3,0.8-2.5,0.5-3.7,0.9c0.9,0.4,1.8,0.8,2.7,1.1c4.6,2,13.6,1.9,19.4-0.3c0.1,1.4,0,3.1-1.2,4.5
			c-2,2.2,5.8-1.5,6.1-7l0.6-0.5c0.4-0.3,0.7-0.5,0.9-0.8l0.9-0.8c4.5-4.9,7.3-9.5,7.9-15.7l0-0.1c0-0.1,0-0.2,0-0.2l0-0.1l0-0.2
			l0-0.1l0-0.2l0-0.1c0-0.1,0-0.2,0-0.2l0-0.1c0-0.1,0-0.2,0-0.2l0,0c0-0.1,0-0.2,0-0.2l0-0.1c0-0.3,0-0.5,0-0.7l0,0
			c0-0.1,0-0.1,0-0.2l0-0.1l0-0.2l0-0.1l0-0.2l0-0.1l0-0.2l0-0.1l0-0.2l0-0.1l0-0.1l0-0.1l0-0.2l0-0.1l0-0.1l0-0.1l0-0.1l0-0.2
			l0-0.1l0,0l0-0.2c0-0.1,0-0.1,0-0.2l0,0c-0.2-1-0.4-1.8-0.6-2.5c0-0.1-0.1-0.2-0.1-0.3c-1.4-5.7-12-0.6-14.9,1.7
			c-5.2,4-6.9,9.1-13.9,11c-10.8,2.9-20.6-6.9-19.2-18.3c0.7-4.7,7.3-4,7.3-4c2.7,0.4,3.8-0.7,4.2-1.3l0,0c0.1-0.1,0.1-0.2,0.1-0.2
			v0l0,0l0,0l0,0l0,0l0,0l0,0l0,0l0,0l0,0l0,0l0,0l0,0l0,0l0,0l0,0l0,0l0,0l0,0l0,0l0,0l0,0l0,0l0,0l0,0l0,0l0,0l0,0l0,0l0,0l0,0
			l0,0l0,0l0,0l0,0v0l0,0l0,0l-0.9,0C42.5,34.2,40,31,40,31c-2-2.2-3.3-0.8-3.3-0.8c-0.9-3.5-3.9-2.4-3.9-2.4c-2.5,0.3-5.2-1-5.2-1
			c-3.8-0.2-3,1.2-3,1.2c2,0,4.9,1.2,4.9,1.2c5.2,3,3.2,7.6,3.2,7.6c-4.2,9.7-0.1,19.7-0.1,19.7c2.3,5.9,5.6,10,9.2,12.7
			c0.8-0.8,1.2-1.3,1.5-2c1.2-2.9,0.2-6.5-2.5-8c-4.7-2.6-0.8-4,1.1-3.2C45.5,57.9,47.1,62.9,45,66.5L45,66.5z M64.1,52.8
			c1-2.6,6-4.9,4.7-1.7c-0.5,1.1-1.7,2.3-3.5,3.1C63.7,54.9,63.8,53.9,64.1,52.8L64.1,52.8z M73.4,43.6c1.9-0.6,1.5,0.1,0.3,0.4
			C72.6,44.4,71.5,44.2,73.4,43.6z"/>
		<path class="st1" d="M58.2,21.6c8.5,0,16.1,4,21,10.2c0.8,1,1.9,2.2,2.5,3.5c1.2,2.6-0.4,5.3-3.2,3.8c-0.6-0.3-1.4-1.5-2.1-2.8
			C68.7,24.2,52.8,22.2,40.9,29c-0.3,0.2-0.2,0.1-0.5,0.3c-1.2,0.8-1.6,0.8-0.1-0.7c1.8-1.7,5.3-4.3,11.2-6.1
			C53.7,21.9,55.9,21.6,58.2,21.6L58.2,21.6z M54.9,41c1.3,1.4,1.9,3.6,3.1,4.5c2.7,2.2,6.3-1.6,3.4-4.8c-6.5-6.9-14.7-5.4-17.9-5
			c-1.4,0.2-2.7,0.7-3.6,1.1c-3.4,1.7-1.7,1,0.2,0.6c3-0.6,6-0.5,6-0.5C50.2,37,53.1,39,54.9,41L54.9,41z M63.2,39.7
			c0,0,1.1,1.3,1.6,3.6c0.5,2.6,3.4,0.7,2.5-0.8c-0.7-1.1-2.8-2.5-3.8-2.7L63.2,39.7L63.2,39.7z M67.1,38.7c0.5,0.6,0.9,1.5,1.5,2.2
			c2.8,3.7,6.8-0.8,3.3-4.2C66,30.3,54.9,26.5,46.4,30c-0.8,0.3-1.5,0.6-2.1,0.9c-2.9,1.6-1.8,1.2,0.2,0.6
			C57.4,27.8,64.1,34.9,67.1,38.7z"/>
	</g>
</g>
</svg>
